<svg width="816" height="815" viewBox="0 0 816 815" fill="none" xmlns="http://www.w3.org/2000/svg">
<g clip-path="url(#clip0)">
<path d="M661.729 383.99C661.539 379.724 661.16 375.458 660.591 371.287C658.695 360.101 655.567 348.347 650.732 334.223C647.13 323.795 643.907 314.316 640.305 304.931C639.452 302.561 638.599 300.191 637.746 297.821C635.471 291.281 633.195 284.55 629.404 278.957C625.896 273.744 622.578 268.34 619.45 263.127C613.952 253.932 608.17 244.547 601.155 236.205C594.424 228.242 588.926 223.123 582.67 219.047C577.361 215.824 572.527 211.748 568.451 207.103C559.824 196.865 549.113 188.618 537.074 182.836C523.423 176.295 508.825 169.47 493.753 164.73C491.952 164.161 490.151 163.592 488.444 163.024C483.799 161.317 478.965 159.99 474.035 159.042C467.4 158 459.532 156.672 451.854 154.966C443.322 153.07 434.506 151.933 425.785 151.648C424.553 151.648 423.32 151.553 422.088 151.553C416.969 151.553 411.945 151.933 406.921 152.312C403.414 152.501 399.811 152.786 396.304 152.975C391.09 152.975 385.877 153.544 380.758 154.587C372.037 156.578 363.126 158.189 354.5 159.706L352.225 160.085C350.329 160.464 348.433 160.749 346.537 161.033C342.176 161.602 337.911 162.455 333.645 163.592C329.284 164.825 324.924 166.436 320.658 168.048C317.909 169.09 314.97 170.228 312.126 171.176C300.941 174.873 289.281 180.276 275.251 188.049C259.231 196.96 244.159 207.482 230.319 219.521C224.252 225.019 218.849 231.181 214.299 238.006C211.076 242.651 208.042 247.58 205.103 252.32C202.639 256.301 200.079 260.378 197.425 264.454C188.135 278.578 180.173 293.556 173.632 309.102L172.21 312.515C168.702 320.762 165.1 329.388 162.162 337.919C157.991 349.958 156.095 362.282 154.294 376.027C153.535 381.809 153.346 387.687 153.061 393.374C152.872 397.64 152.682 402.095 152.303 406.551C151.45 416.22 151.924 426.837 153.725 438.97C154.009 440.866 154.294 442.667 154.578 444.563C155.336 451.009 156.569 457.361 158.085 463.617C162.73 480.775 168.797 497.459 176.381 513.479C185.197 531.869 196.098 549.216 205.577 564.004C211.739 573.579 218.469 582.774 225.863 591.495C232.215 598.889 239.798 605.24 248.33 610.075C252.216 612.255 256.008 614.625 259.8 616.9C263.876 619.364 268.047 621.924 272.218 624.389C275.82 626.474 279.328 628.56 282.74 630.74C291.746 636.238 301.036 641.925 311.179 645.528C314.781 646.855 318.383 648.372 321.89 649.793C328.147 652.448 334.593 655.197 341.323 656.524C344.072 657.093 347.011 657.567 349.76 657.946C351.466 658.23 353.172 658.515 354.879 658.799C357.628 659.273 360.472 659.462 363.221 659.652C366.159 659.747 369.098 660.126 372.037 660.505C379.241 661.738 386.825 661.927 394.124 662.211C398.484 662.306 403.034 662.496 407.49 662.875C417.822 663.728 428.913 662.97 442.185 660.695C445.787 660.031 449.484 659.652 453.086 659.273C458.489 658.799 463.987 657.946 469.296 656.619C472.708 655.671 476.121 654.533 479.439 653.49C481.903 652.732 484.368 651.879 486.927 651.121C498.587 647.708 509.773 643.158 520.58 637.565C527.215 634.058 533.851 630.076 540.202 626.19C547.691 621.639 555.464 616.995 563.427 612.918C567.218 611.117 570.726 608.747 573.759 605.809C583.049 596.14 593.856 584.575 604.188 572.252C611.961 562.867 620.114 552.724 626.181 541.159C627.887 537.936 629.498 534.523 631.015 531.206C633.195 526.181 635.755 521.347 638.409 516.607C647.035 502.198 657.084 470.347 657.368 469.589C659.454 462.669 660.875 455.559 661.349 448.355C661.634 445.416 662.013 442.383 662.297 439.539C663.15 433.662 663.624 427.69 663.624 421.718C663.435 411.006 662.961 401.147 662.013 391.668C662.013 389.014 661.918 386.454 661.729 383.99Z" fill="white"/>
<path opacity="0.5" d="M661.283 383.935C661.094 379.681 660.714 375.428 660.146 371.268C658.25 360.114 655.122 348.392 650.287 334.308C646.685 323.909 643.462 314.457 639.86 305.098C639.007 302.735 638.153 300.372 637.3 298.009C635.025 291.486 632.75 284.775 628.958 279.197C625.451 273.998 622.133 268.61 619.005 263.411C613.507 254.242 607.724 244.883 600.71 236.565C593.979 228.625 588.481 223.52 582.225 219.455C576.916 216.241 572.082 212.177 568.005 207.545C559.379 197.336 548.667 189.112 536.629 183.345C522.978 176.823 508.38 170.017 493.307 165.29C491.506 164.723 489.705 164.156 487.999 163.589C483.354 161.887 478.519 160.564 473.59 159.619C466.955 158.579 459.087 157.255 451.408 155.554C442.877 153.663 434.061 152.529 425.34 152.245C424.107 152.245 422.875 152.151 421.643 152.151C416.524 152.151 411.5 152.529 406.476 152.907C402.968 153.096 399.366 153.38 395.859 153.569C390.645 153.569 385.431 154.136 380.312 155.176C371.591 157.161 362.681 158.768 354.054 160.28L351.779 160.658C349.883 161.037 347.987 161.32 346.092 161.604C341.731 162.171 337.465 163.022 333.199 164.156C328.839 165.385 324.478 166.992 320.213 168.599C317.464 169.639 314.525 170.773 311.681 171.718C300.495 175.405 288.836 180.793 274.806 188.544C258.786 197.43 243.713 207.923 229.873 219.928C223.807 225.411 218.403 231.555 213.853 238.361C210.63 242.993 207.597 247.908 204.658 252.635C202.194 256.605 199.634 260.67 196.98 264.735C187.69 278.819 179.727 293.755 173.186 309.257L171.764 312.661C168.257 320.885 164.655 329.487 161.716 337.994C157.545 349.999 155.649 362.288 153.848 375.995C153.09 381.761 152.9 387.622 152.616 393.293C152.426 397.547 152.237 401.99 151.858 406.433C151.004 416.075 151.478 426.662 153.28 438.762C153.564 440.652 153.848 442.448 154.133 444.339C154.891 450.767 156.123 457.1 157.64 463.339C162.285 480.449 168.352 497.086 175.935 513.061C184.751 531.4 195.653 548.699 205.132 563.445C211.294 572.992 218.024 582.162 225.418 590.858C231.769 598.232 239.353 604.565 247.884 609.386C251.771 611.56 255.563 613.923 259.355 616.192C263.431 618.65 267.602 621.202 271.773 623.66C275.375 625.739 278.882 627.819 282.295 629.993C291.3 635.476 300.59 641.148 310.733 644.74C314.335 646.063 317.938 647.576 321.445 648.993C327.701 651.64 334.147 654.382 340.878 655.705C343.627 656.272 346.566 656.745 349.315 657.123C351.021 657.406 352.727 657.69 354.433 657.974C357.182 658.446 360.026 658.635 362.775 658.824C365.714 658.919 368.653 659.297 371.591 659.675C378.796 660.904 386.379 661.093 393.678 661.377C398.039 661.471 402.589 661.66 407.044 662.038C417.377 662.889 428.468 662.133 441.739 659.864C445.341 659.203 449.038 658.824 452.641 658.446C458.044 657.974 463.542 657.123 468.85 655.8C472.263 654.854 475.676 653.72 478.993 652.68C481.458 651.924 483.923 651.073 486.482 650.317C498.142 646.914 509.328 642.376 520.134 636.799C526.77 633.302 533.405 629.331 539.757 625.456C547.245 620.918 555.019 616.286 562.981 612.222C566.773 610.426 570.281 608.063 573.314 605.132C582.604 595.49 593.41 583.958 603.743 571.669C611.516 562.311 619.668 552.196 625.735 540.664C627.442 537.45 629.053 534.047 630.57 530.738C632.75 525.728 635.31 520.907 637.964 516.181C646.59 501.812 656.638 470.051 656.923 469.294C659.008 462.394 660.43 455.304 660.904 448.12C661.188 445.19 661.568 442.165 661.852 439.329C662.705 433.468 663.179 427.513 663.179 421.558C662.99 410.876 662.516 401.045 661.568 391.592C661.568 388.945 661.473 386.393 661.283 383.935Z" fill="#97CDEB"/>
<mask id="mask0" mask-type="alpha" maskUnits="userSpaceOnUse" x="151" y="150" width="513" height="511">
<path d="M661.283 382.557C661.094 378.303 660.714 374.049 660.146 369.89C658.25 358.736 655.122 347.014 650.287 332.929C646.685 322.531 643.462 313.078 639.86 303.72C639.007 301.357 638.153 298.994 637.3 296.63C635.025 290.108 632.75 283.396 628.958 277.819C625.451 272.62 622.133 267.232 619.005 262.033C613.507 252.864 607.724 243.505 600.71 235.187C593.979 227.246 588.481 222.142 582.225 218.077C576.916 214.863 572.082 210.798 568.005 206.166C559.379 195.957 548.667 187.733 536.629 181.967C522.978 175.445 508.38 168.639 493.307 163.912C491.506 163.345 489.705 162.778 487.999 162.211C483.354 160.509 478.519 159.186 473.59 158.24C466.955 157.201 459.087 155.877 451.408 154.176C442.877 152.285 434.061 151.151 425.34 150.867C424.107 150.867 422.875 150.773 421.643 150.773C416.524 150.773 411.5 151.151 406.476 151.529C402.968 151.718 399.366 152.002 395.859 152.191C390.645 152.191 385.431 152.758 380.312 153.798C371.591 155.783 362.681 157.39 354.054 158.902L351.779 159.28C349.883 159.658 347.987 159.942 346.092 160.226C341.731 160.793 337.465 161.644 333.199 162.778C328.839 164.007 324.478 165.614 320.213 167.221C317.464 168.261 314.525 169.395 311.681 170.34C300.495 174.027 288.836 179.415 274.806 187.166C258.786 196.052 243.713 206.545 229.873 218.55C223.807 224.032 218.403 230.177 213.853 236.983C210.63 241.615 207.597 246.53 204.658 251.257C202.194 255.227 199.634 259.292 196.98 263.356C187.69 277.441 179.727 292.377 173.186 307.879L171.764 311.282C168.257 319.506 164.655 328.108 161.716 336.616C157.545 348.621 155.649 360.91 153.848 374.617C153.09 380.383 152.9 386.244 152.616 391.915C152.426 396.169 152.237 400.612 151.858 405.055C151.004 414.697 151.478 425.284 153.28 437.384C153.564 439.274 153.848 441.07 154.133 442.961C154.891 449.389 156.123 455.722 157.64 461.961C162.285 479.071 168.352 495.708 175.935 511.683C184.751 530.022 195.653 547.32 205.132 562.067C211.294 571.614 218.024 580.784 225.418 589.48C231.769 596.853 239.353 603.187 247.884 608.008C251.771 610.182 255.563 612.545 259.355 614.814C263.431 617.272 267.602 619.824 271.773 622.282C275.375 624.361 278.882 626.441 282.295 628.615C291.3 634.098 300.59 639.769 310.733 643.361C314.335 644.685 317.938 646.197 321.445 647.615C327.701 650.262 334.147 653.003 340.878 654.327C343.627 654.894 346.566 655.367 349.315 655.745C351.021 656.028 352.727 656.312 354.433 656.595C357.182 657.068 360.026 657.257 362.775 657.446C365.714 657.541 368.653 657.919 371.591 658.297C378.796 659.526 386.379 659.715 393.678 659.998C398.039 660.093 402.589 660.282 407.044 660.66C417.377 661.511 428.468 660.755 441.739 658.486C445.341 657.824 449.038 657.446 452.641 657.068C458.044 656.595 463.542 655.745 468.85 654.421C472.263 653.476 475.676 652.342 478.993 651.302C481.458 650.546 483.923 649.695 486.482 648.939C498.142 645.536 509.328 640.998 520.134 635.421C526.77 631.923 533.405 627.953 539.757 624.078C547.245 619.54 555.019 614.908 562.981 610.844C566.773 609.048 570.281 606.684 573.314 603.754C582.604 594.112 593.41 582.58 603.743 570.291C611.516 560.933 619.668 550.818 625.735 539.285C627.442 536.072 629.053 532.668 630.57 529.36C632.75 524.35 635.31 519.529 637.964 514.803C646.59 500.434 656.638 468.673 656.923 467.916C659.008 461.016 660.43 453.926 660.904 446.742C661.188 443.812 661.568 440.787 661.852 437.951C662.705 432.09 663.179 426.135 663.179 420.179C662.99 409.498 662.516 399.667 661.568 390.214C661.568 387.567 661.473 385.015 661.283 382.557Z" fill="#EF1313"/>
</mask>
<g mask="url(#mask0)">
<path d="M365.589 460.123C332.593 445.036 321.004 435.812 310.789 450.311C309.993 451.431 312.019 461.091 312.019 461.091C312.019 461.091 378.938 488.979 412.805 496.637C439.419 502.662 499.105 497.424 499.105 497.424L549.152 497.272C549.152 497.272 572.973 492.357 583.416 483.912C589.201 479.234 602.891 483.855 608.118 465.608C610.38 457.684 490.82 433.905 472.85 436.353C454.88 438.801 409.292 430.812 401.51 430.831C393.727 430.85 364.718 436.144 364.083 442.701C363.449 449.258 368.24 461.328 365.589 460.123Z" fill="#AEADAD"/>
<path d="M382.489 432.461C377.386 434.805 299.428 435.488 289.704 435.07C279.981 434.653 288.909 447.643 293.719 448.516C296.635 449.048 419.812 444.721 440.471 445.594C461.366 446.543 503.47 452.834 516.498 452.34C533.871 451.686 556.196 471.366 570.928 469.515C582.29 468.092 609.576 466.014 612.795 458.242C615.408 451.923 617.804 410.465 616.952 395.103C616.1 379.74 592.667 352.981 589.609 336.537C584.676 310.034 572.983 312.236 558.62 312.312C549.077 312.369 517.539 307.501 513.042 307.197C508.545 306.893 490.442 304.483 487.744 305.584C485.045 306.685 471.374 294.387 459.984 288.618C441.436 279.195 413.752 268.691 400.601 274.289C389.003 279.233 355.08 289.31 346.095 288.428C337.11 287.545 326.638 289.377 312.834 288.532C299.03 287.688 256.51 288.703 256.51 288.703C252.477 288.798 259.066 304.569 259.53 307.615C259.994 310.661 298.519 310.632 320.986 309.512C343.453 308.393 386.314 324.163 392.648 326.811C384.61 344.422 390.812 350.761 390.566 367.936C390.319 385.111 388.104 384.703 387.574 390.026C387.015 395.72 394.495 399.515 394.504 403.131C394.514 406.746 387.602 430.108 382.489 432.461Z" fill="white"/>
<path d="M356.149 318.149C356.149 318.149 359.454 331.319 360.703 337.345C361.953 343.37 360.012 357.129 358.554 369.218C357.096 381.307 357.607 385.454 358.497 387.855C359.387 390.255 360.391 405.751 360.391 409.679C360.391 413.608 365.4 418.855 366.119 427.291C366.839 435.726 374.157 432.31 378.882 432.035C383.606 431.76 387.526 426.342 391.976 413.105C396.426 399.868 389.902 397.922 387.242 393.32C385.509 390.265 384.676 390.341 388.246 380.652C391.815 370.964 388.246 366.077 387.64 358.543C387.034 351.009 390.773 326.784 390.773 326.784L356.149 318.149Z" fill="#AEADAD"/>
<path d="M620.215 419.104C619.6 413.322 619.808 407.482 620.831 401.758C621.948 394.556 618.445 387.857 615.349 381.926L615.264 381.774C614.43 380.18 613.645 378.671 612.991 377.229C611.76 374.515 610.52 372.266 609.422 370.273C607.439 366.918 605.814 363.362 604.574 359.665C603.928 357.708 603.176 355.789 602.321 353.915C602.094 353.393 601.866 352.88 601.649 352.349C600.094 348.231 597.619 344.524 594.415 341.512C593.336 340.488 593.289 337.859 593.251 335.525V335.041C593.165 330.619 592.73 325.419 590.268 320.362C586.481 312.543 580.393 308.7 571.702 308.624C568.199 308.624 565.283 308.624 562.423 308.7C558.068 308.776 553.959 308.842 548.534 308.595H548.401C546.391 308.564 544.401 308.195 542.512 307.504C533.414 303.376 526.048 303.49 518.18 303.614C513.266 303.83 508.343 303.579 503.476 302.864C503.259 302.864 502.397 302.731 499.992 302.465C496.139 302.038 487.125 301.052 486.169 300.776C477.998 297.93 471.2 292.711 463.995 287.169L462.225 285.812C454.149 279.616 444.548 276.266 436.236 273.799C423.265 269.956 409.631 269.197 394.577 271.474C384.285 273.04 374.439 276.086 364.914 279.066L364.706 279.132C360.672 280.385 356.488 281.675 352.397 282.823C347.877 284.095 343.212 284.784 338.518 284.873C331.758 284.987 324.855 284.607 318.181 284.247C309.535 283.624 300.863 283.469 292.201 283.782L288.262 283.981C286.369 284.085 285.166 284.133 284.172 284.171C282.657 284.228 281.559 284.266 278.794 284.465H278.595L278.406 284.531C278.226 284.598 278.056 284.645 277.876 284.693C276.787 278.838 274.288 267.745 273.142 264.196C272.994 263.758 272.976 263.287 273.091 262.839C273.205 262.391 273.446 261.986 273.786 261.672C274.67 260.743 275.454 259.722 276.124 258.626C276.475 258.104 276.806 257.602 277.147 257.165C281.256 251.804 278.027 245.048 275.765 238.681C274.641 235.519 272.727 232.7 270.206 230.492C267.684 228.284 264.64 226.762 261.364 226.07C251.394 223.754 241.481 227.503 236.056 235.606C233.595 239.297 234.305 243.719 234.92 247.629C234.996 248.065 235.062 248.502 235.119 248.929C236.558 258.617 243.507 264.111 250.798 268.59C253.988 270.554 254.528 272.148 254.642 273.334C254.736 274.283 255.588 281.286 256.119 285.594C255.73 285.529 255.349 285.424 254.983 285.281L254.566 285.129L254.14 285.233C253.767 285.326 253.407 285.467 253.07 285.651C252.516 285.962 252.051 286.411 251.719 286.955C251.387 287.498 251.201 288.117 251.176 288.754C251.096 291.147 251.416 293.536 252.123 295.823C252.541 297.244 252.839 298.698 253.013 300.169C253.345 302.94 254.5 309.544 258.06 311.129C259.16 311.606 260.301 311.984 261.468 312.258C263.712 321.016 265.504 329.884 266.836 338.827L267.12 340.516C267.556 343.126 267.991 345.745 268.465 348.344C269.923 356.518 271.4 364.694 272.896 372.873C273.189 374.496 273.464 376.119 273.738 377.741C274.392 381.66 275.073 385.712 276.086 389.65C279.58 403.219 282.439 417.168 285.024 430.225C285.17 431.022 285.275 431.827 285.337 432.635C283.282 433.584 282.146 434.912 281.985 436.62C280.252 445.009 284.702 449.345 288.83 451.641C288.84 451.796 288.869 451.949 288.915 452.097C289.862 455.418 290.695 458.815 291.424 462.535C291.832 464.556 292.419 466.53 292.977 468.427L293.195 469.148C293.789 471.014 294.264 472.916 294.615 474.842C297.02 489.578 300.835 504.039 304.547 517.599C307.272 528.162 309.365 538.878 310.815 549.691C311.761 555.849 312.888 562.026 314.005 568.052C314.561 571.006 315.107 573.96 315.643 576.915C316.079 579.391 316.514 581.858 316.959 584.335L317.234 585.853C319.336 597.695 321.513 609.946 323.606 622.006C325.584 633.393 328.851 645.321 331.473 654.876V654.999C332.856 655.18 334.314 655.303 335.791 655.417L338.158 657.95L350.551 661.12L353.306 657.324C354.13 657.542 354.935 657.78 355.711 658.064C355.87 657.799 355.972 657.503 356.011 657.196C356.051 656.889 356.026 656.577 355.938 656.28C352.104 643.119 347.417 624.084 345.751 610.107C345.341 606.634 344.918 603.155 344.482 599.669C343.237 588.945 341.4 578.298 338.982 567.777L338.224 564.664C336.331 557.016 334.437 549.112 332.988 541.236C332.496 538.589 332.042 535.846 331.653 533.199C330.621 526.623 329.552 519.82 327.327 513.272C326.995 512.323 326.692 511.308 326.38 510.331C324.837 505.102 323.805 499.637 322.801 494.332L322.375 492.055C321.551 487.728 320.585 483.372 319.658 479.15C319.184 477.015 318.711 474.88 318.256 472.735C318.02 471.635 317.537 469.129 316.902 465.685H316.969C317.669 465.913 318.635 466.216 319.08 466.416C320.031 466.836 321.005 467.203 321.996 467.516C322.451 467.659 322.943 467.811 323.36 467.981C325.13 468.636 326.919 469.215 328.501 469.718C330.394 470.335 332.117 470.885 333.765 471.521C336.027 472.434 338.239 473.467 340.392 474.614C342.959 476.002 345.612 477.223 348.336 478.267C349.832 478.799 351.321 479.314 352.805 479.814L353.136 479.928C358.173 481.645 362.926 483.259 367.48 485.821C368.427 486.352 369.421 486.883 370.434 487.405C378.634 491.471 387.262 494.603 396.158 496.742C400.182 497.786 404.244 498.64 408.22 499.247C415.433 500.472 422.765 500.829 430.062 500.31C437.495 499.693 446.934 499.969 456.118 500.234C463.863 500.462 471.162 500.68 477.563 500.396C480.261 500.272 483.367 500.396 486.642 500.472H486.775C490.635 500.676 494.504 500.676 498.364 500.472C500.098 500.288 501.846 500.288 503.58 500.472C507.195 500.797 510.831 500.822 514.45 500.547C516.968 500.415 520.216 500.547 523.416 500.604C526.928 500.709 530.554 500.813 533.584 500.604C535.55 500.5 537.521 500.535 539.483 500.709H539.587C540.922 500.813 542.143 500.889 543.507 500.889H543.62C545.003 500.884 546.385 500.795 547.758 500.623C551.379 500.162 554.973 499.504 558.523 498.65L562.196 497.777L564.09 497.312C565.775 496.772 567.415 496.099 568.994 495.3L569.676 494.987L570.499 494.617C572.991 493.525 575.421 492.3 577.78 490.945C579.267 490.119 580.8 489.265 582.514 488.402C583.101 488.117 583.698 487.842 584.285 487.605C586.383 486.751 588.582 486.167 590.827 485.868C595.165 485.342 599.287 483.676 602.775 481.038C604.328 479.819 605.713 478.399 606.894 476.816C610.125 472.698 612.764 468.146 614.733 463.294L614.961 462.705L615.017 462.516C619.221 451.49 621.238 442.124 621.171 433.897C621.236 428.948 620.916 424.002 620.215 419.104ZM257.084 250.618H254.481C252.322 250.618 251.64 250.485 250.76 249.413C249.879 248.34 250.021 246.025 250.76 244.621C251.088 243.806 251.6 243.078 252.256 242.495C253.237 241.728 254.258 241.012 255.314 240.351C255.511 240.206 255.743 240.118 255.986 240.094H256.204C256.521 240.099 256.837 240.124 257.151 240.17C259.398 240.287 261.526 241.222 263.134 242.799C263.313 242.976 263.475 243.17 263.617 243.378C263.716 243.804 263.767 244.24 263.769 244.678C263.735 245.843 263.4 246.98 262.798 247.978C262.196 248.975 261.346 249.8 260.332 250.371C259.257 250.533 258.171 250.615 257.084 250.618ZM286.908 322.639C286.634 321.804 286.34 320.959 286.056 320.124C285.81 319.441 285.573 318.748 285.346 318.065C284.836 316.585 284.437 315.069 284.153 313.529C289.777 313.776 295.458 313.843 301.015 313.909C310.531 314.013 320.358 314.127 329.883 315.162C335.418 315.907 340.899 317.013 346.291 318.473L348.014 318.9L350.921 319.697C350.982 319.72 351.04 319.752 351.091 319.792C351.161 319.996 351.184 320.214 351.157 320.428C351.081 323.588 352.255 326.226 353.297 328.57C353.878 329.753 354.347 330.989 354.698 332.261L354.764 332.564C356.043 339.254 355.711 345.849 355.276 352.871L355.143 355.385C354.954 358.906 354.471 362.521 354.007 366.022C353.174 372.295 352.303 378.776 352.937 385.427C353.07 386.822 353.269 388.208 353.524 389.555C354.427 393.433 354.853 397.406 354.793 401.388C354.753 402.093 354.753 402.799 354.793 403.504C354.967 406.458 355.363 409.396 355.976 412.291C357.006 416.917 358.491 421.431 360.407 425.765C360.87 426.841 361.188 427.974 361.354 429.134C361.354 429.437 361.42 429.75 361.449 430.082C355.636 430.196 349.832 430.699 344.208 431.193C333.358 432.142 322.129 433.09 311.364 431.145C310.502 430.993 309.622 430.861 308.732 430.756C308.145 427.558 307.51 424.361 306.838 421.267C306.346 418.857 305.891 416.447 305.39 414.027C304.72 410.51 304.036 406.986 303.335 403.456C301.119 392.193 298.819 380.541 297.19 369.011C296.461 363.916 295.297 358.887 294.18 354.028C293.678 351.865 293.166 349.616 292.693 347.386C292.286 345.488 291.898 343.505 291.51 341.569C290.352 335.173 288.816 328.852 286.908 322.639ZM386.16 363.223C386.779 366.514 387.137 369.849 387.23 373.196C387.556 376.594 386.782 380.008 385.024 382.932C382.505 387.05 381.303 390.371 383.073 394.186C383.22 394.502 383.415 394.793 383.651 395.049C383.756 395.386 383.909 395.705 384.105 395.998C384.907 397.115 385.787 398.174 386.737 399.167C386.908 399.357 387.097 399.537 387.287 399.718L387.618 400.059C392.219 404.956 392.276 405.269 389.597 411.37L387.959 415.099C386.065 419.341 384.172 423.715 382.231 427.976C382.146 428.166 381.672 428.365 380.195 428.839C377.459 429.655 374.623 430.09 371.769 430.13C370.746 430.13 369.705 430.13 368.739 430.13C368.739 429.399 368.654 428.735 368.569 428.109C368.318 426.311 367.834 424.553 367.13 422.88C365.424 418.984 364.104 414.928 363.191 410.772C362.653 408.237 362.305 405.664 362.149 403.077C362.149 402.697 362.149 402.128 362.149 401.758C362.244 397.182 361.777 392.612 360.758 388.151C360.54 387.04 360.379 385.892 360.265 384.744C359.716 378.937 360.493 373.149 361.307 367.019C361.771 363.546 362.254 359.617 362.5 355.784L362.642 353.222C363.049 345.773 363.447 338.742 361.988 331.141L361.894 330.695C361.438 328.918 360.804 327.191 360 325.543C359.404 324.331 358.941 323.058 358.618 321.747L362.007 322.62C366.514 323.778 371.163 324.973 375.821 325.884C379.258 326.548 383.679 327.44 388.233 328.598C386.865 332.827 385.883 337.172 385.298 341.579C384.361 348.79 384.652 356.109 386.16 363.223ZM601.232 472.422C600.473 473.449 599.6 474.385 598.628 475.212C596.033 477.211 592.936 478.452 589.681 478.799C586.896 479.189 584.171 479.926 581.567 480.991C580.829 481.294 580.1 481.626 579.39 481.94C577.496 482.888 575.887 483.761 574.258 484.663C572.112 485.897 569.899 487.012 567.631 488.003L566.466 488.525L565.86 488.8C563.37 489.948 562.584 490.261 562.367 490.318L560.984 490.65C559.46 491.03 558.144 491.353 556.856 491.599C553.551 492.402 550.204 493.017 546.83 493.44C545.753 493.577 544.668 493.65 543.582 493.658C542.408 493.658 541.329 493.583 540.183 493.507H540.079C537.768 493.307 535.446 493.269 533.13 493.393C530.431 493.554 526.966 493.459 523.605 493.393C520.244 493.326 516.883 493.194 514.052 493.345C510.761 493.602 507.455 493.58 504.168 493.279C502.042 493.068 499.902 493.068 497.777 493.279C494.539 493.535 490.458 493.402 486.851 493.279C483.575 493.175 480.223 493.08 477.222 493.212C471.134 493.478 463.967 493.269 456.317 493.042C446.982 492.767 437.334 492.482 429.438 493.146C422.724 493.621 415.977 493.303 409.337 492.197C405.55 491.599 401.763 490.802 397.976 489.825C389.603 487.822 381.482 484.881 373.766 481.057C372.82 480.583 371.93 480.108 371.049 479.596C366.057 476.971 360.834 474.814 355.446 473.153C353.903 472.631 352.35 472.1 350.797 471.54C348.366 470.605 345.998 469.514 343.706 468.275C341.334 466.994 338.89 465.85 336.387 464.85C334.588 464.157 332.761 463.569 331 463L330.621 462.876C329.059 462.373 327.45 461.861 325.935 461.301C325.424 461.102 324.893 460.931 324.287 460.722C323.561 460.497 322.847 460.234 322.148 459.935C321.172 459.521 320.173 459.166 319.156 458.872C318.379 458.625 317.489 458.35 317.073 458.16C316.551 457.925 316.017 457.719 315.473 457.543H315.416C315.037 455.427 314.677 453.425 314.393 451.784H317.423H317.603C320.235 451.784 322.952 451.841 325.67 451.717C327.156 451.651 328.51 451.546 329.788 451.404C331.43 451.291 333.076 451.262 334.721 451.319C335.11 451.641 335.532 451.921 335.98 452.154C336.927 452.761 338.821 453.985 341.263 455.342C344.672 457.24 349.538 459.527 353.344 459.916H353.458C353.609 459.916 353.761 459.916 353.95 459.982C357.567 460.466 360.748 461.045 363.191 463.066L363.323 463.161C363.407 463.228 363.496 463.288 363.589 463.341C363.679 463.402 363.774 463.456 363.873 463.503L364.09 463.616L364.27 463.683L364.649 463.797H364.867C365.088 463.839 365.313 463.861 365.539 463.863C365.859 463.856 366.177 463.808 366.486 463.721C366.576 463.7 366.665 463.671 366.751 463.635C366.978 463.556 367.197 463.454 367.404 463.332L367.631 463.189C367.839 463.04 368.032 462.871 368.209 462.686L368.36 462.525C368.543 462.303 368.696 462.057 368.815 461.795C368.856 461.736 368.888 461.672 368.909 461.605L369.004 461.368C369.004 461.32 369.004 461.282 369.004 461.235C370.046 458.388 369.402 455.342 368.834 452.647C368.663 451.822 368.483 450.968 368.379 450.237V450.152L371.352 450.085C375.234 449.99 379.116 449.905 383.007 449.782C387.4 449.639 391.869 449.421 396.186 449.212H396.745C406.469 448.728 416.523 448.263 426.304 448.624C437.665 449.06 449.727 449.791 461.458 452.154C474.713 454.811 485.724 456.073 496.167 456.13C503.293 456.059 510.417 456.376 517.508 457.079C523.497 457.904 529.42 459.156 535.232 460.827C538.644 461.818 541.984 463.042 545.23 464.489C548.61 465.894 552.804 467.64 558.617 469.68C558.968 469.803 559.469 470.012 560.075 470.268L560.198 470.325C563.039 471.492 567.233 473.267 570.916 473.267C576.477 473.358 582.003 472.372 587.191 470.363L587.428 470.278C591.764 468.38 596.896 468.38 601.469 468.313C602.416 468.313 603.211 468.313 603.997 468.313C603.148 469.731 602.226 471.103 601.232 472.422ZM361.222 451.309C361.354 452.258 361.562 453.292 361.761 454.241C361.809 454.46 361.865 455.019 361.922 455.608C359.734 454.634 357.42 453.972 355.048 453.644C354.755 453.644 354.452 453.568 354.168 453.539C351.616 453.05 349.159 452.156 346.887 450.892C346.893 450.832 346.893 450.771 346.887 450.711C349.898 449.933 353.25 450.085 356.828 450.246C358.211 450.303 359.669 450.37 361.07 450.37C361.07 450.645 361.127 450.92 361.165 451.205L361.222 451.309ZM608.087 460.495C607.739 460.614 607.381 460.7 607.017 460.751C605.2 460.945 603.372 461.021 601.545 460.978C596.555 460.978 590.344 461.035 584.682 463.531C580.292 465.22 575.617 466.038 570.916 465.941C568.795 465.941 565.093 464.385 563.048 463.531C562.262 463.199 561.647 462.943 561.155 462.753C555.663 460.855 551.687 459.204 548.269 457.771H548.155C544.607 456.189 540.953 454.857 537.22 453.786C531.079 452.029 524.82 450.713 518.492 449.848C511.129 449.098 503.729 448.759 496.328 448.833C485.132 448.649 473.981 447.378 463.03 445.037C450.807 442.579 438.347 441.82 426.711 441.365C424.155 441.26 421.598 441.222 419.032 441.222C411.458 441.222 403.808 441.593 396.357 441.963H396.205C391.831 442.181 387.324 442.399 382.95 442.541C379.286 442.655 375.632 442.741 371.968 442.826L369.553 442.883C367.754 442.883 365.965 442.959 364.176 443.016H362.49C360.824 443.063 359.129 443.016 357.34 442.902H357.226C352.956 442.712 348.544 442.513 344.132 443.898C342.559 444.361 340.9 444.455 339.284 444.174L338.518 444.098C337.779 444.041 336.974 443.974 336.056 443.965H335.422C333.303 443.895 331.183 443.936 329.069 444.088C327.914 444.221 326.73 444.316 325.442 444.373C322.867 444.487 320.197 444.449 317.537 444.373C314.393 444.373 311.146 444.297 307.88 444.515C305.542 444.742 303.233 445.202 300.987 445.891H300.854L300.144 446.081L299.33 446.299C298.451 446.539 297.56 446.729 296.66 446.868L296.13 446.688C289.843 444.601 288.622 442.352 289.048 439.097C289.256 439.031 289.493 438.964 289.739 438.907L290.165 438.822L291.614 438.66C295.964 438.053 300.354 437.774 304.746 437.825C306.537 437.881 308.322 438.068 310.086 438.385C321.816 440.52 333.528 439.505 344.871 438.518C350.826 438.006 356.999 437.465 363.011 437.427C364.128 437.427 365.245 437.427 366.467 437.427C368.294 437.427 370.188 437.427 372.091 437.427C375.62 437.371 379.125 436.825 382.505 435.804C384.607 435.14 387.476 434.22 388.934 431.012C390.979 426.543 392.977 421.988 394.918 417.547L396.347 414.302C400.182 405.563 399.557 401.967 393.015 394.992C392.863 394.831 392.712 394.67 392.551 394.518L392.409 394.385L392.134 394.1C391.431 393.378 390.782 392.604 390.193 391.785C390.099 391.662 390.004 391.538 389.9 391.424C389.86 391.298 389.812 391.175 389.758 391.054C389.559 390.637 389.294 390.105 391.31 386.765C393.875 382.59 395.039 377.702 394.634 372.817C394.536 369.072 394.128 365.343 393.412 361.667C392.077 355.367 391.817 348.886 392.645 342.499C393.174 338.453 394.084 334.465 395.363 330.591H395.476L395.827 330.705C397.304 331.179 397.796 331.34 400.078 333.779C400.421 334.146 400.836 334.439 401.297 334.64C401.758 334.841 402.255 334.945 402.757 334.946C403.473 334.943 404.173 334.731 404.77 334.335C405.367 333.939 405.836 333.377 406.118 332.718C406.401 332.059 406.485 331.331 406.361 330.624C406.236 329.917 405.908 329.263 405.418 328.74C402.009 325.078 400.466 324.461 398.052 323.692L397.692 323.569C396.423 323.161 395.135 322.781 393.905 322.43C387.94 320.732 381.89 319.489 377.289 318.587C372.687 317.686 368.275 316.547 363.891 315.418L363.693 315.37L358.675 314.089L354.793 313.036L353.373 312.647C352.832 312.44 352.279 312.269 351.716 312.135L348.08 311.243C342.392 309.713 336.611 308.557 330.773 307.779C320.898 306.707 310.89 306.593 301.167 306.479C298.753 306.479 295.657 306.318 292.646 306.195C288.281 306.005 284.125 305.824 281.796 305.938C280.745 305.986 280.262 306.024 279.902 306.052C279.372 306.052 279.192 306.1 277.526 306.1H275.499H272.744C271.637 306.1 270.5 306.1 269.364 305.976C266.758 305.821 264.18 305.353 261.686 304.581C261.033 302.863 260.585 301.073 260.351 299.249C260.13 297.396 259.756 295.565 259.234 293.773L258.997 292.891C260.668 293.135 262.362 293.18 264.043 293.024C266.514 292.758 268.986 292.53 271.4 292.341C277.156 291.885 282.998 291.582 288.65 291.287L292.589 291.079C300.989 290.782 309.399 290.937 317.783 291.544C324.581 291.914 331.597 292.293 338.612 292.189C343.931 292.084 349.216 291.302 354.338 289.864C358.589 288.678 362.86 287.359 366.959 286.068L367.158 286.012C376.408 283.165 385.971 280.185 395.675 278.714C409.678 276.598 422.28 277.291 434.2 280.821C441.869 283.089 450.683 286.144 457.813 291.619L459.574 292.967C464.592 296.829 476.162 303.727 483.073 307.846C485.781 309.449 488.337 310.977 488.64 311.205C489.989 312.423 491.419 313.549 492.92 314.573L494.018 315.37C496.4 317.197 498.688 319.145 500.873 321.206C504.3 324.318 507.85 327.535 511.287 329.424L511.534 329.556L518.161 333.2C518.7 333.496 519.307 333.646 519.922 333.637C520.578 333.64 521.223 333.465 521.788 333.131C522.353 332.797 522.817 332.316 523.132 331.739C523.596 330.881 523.701 329.873 523.424 328.937C523.147 328.001 522.511 327.213 521.655 326.748L516.428 323.901L514.819 323.009C511.666 321.272 508.248 318.179 504.934 315.181C502.709 313.169 500.418 311.1 498.193 309.43L498.998 309.582C499.623 309.696 500.361 309.819 501.109 309.933L502.312 310.123C507.637 310.925 513.027 311.211 518.407 310.977C525.678 310.863 531.965 310.768 539.577 314.213C542.339 315.315 545.278 315.906 548.25 315.959C553.931 316.215 558.134 316.139 562.641 316.063C565.481 316.016 568.322 315.968 571.721 315.997C577.591 315.997 581.189 318.321 583.764 323.588C585.601 327.383 585.923 331.568 585.998 335.183V335.658C586.055 339.055 586.14 343.714 589.473 346.874C591.923 349.183 593.803 352.032 594.964 355.196C595.211 355.774 595.457 356.334 595.722 356.941C596.472 358.565 597.126 360.232 597.682 361.933C599.077 366.11 600.905 370.13 603.135 373.927C604.215 375.872 605.322 377.884 606.402 380.275C607.187 382.002 608.125 383.776 608.939 385.342C611.637 390.485 614.411 395.78 613.673 400.61C612.53 407.023 612.313 413.568 613.029 420.043C613.715 424.714 614.032 429.432 613.976 434.153C613.966 441.564 612.063 450.19 608.087 460.495Z" fill="#141414"/>
</g>
<path d="M808.091 382.662C807.712 378.871 807.522 374.984 807.333 371.192C807.048 364.367 806.385 357.542 805.437 350.811C802.498 333.18 797.569 314.695 789.985 292.418C784.393 276.208 779.369 261.515 773.776 246.917C772.448 243.409 771.216 239.712 769.984 236.205C766.382 225.683 762.59 214.781 756.333 205.491C751.025 197.624 746.001 189.282 741.166 181.224C732.445 166.815 723.535 151.933 712.349 138.661C701.542 125.769 692.537 117.427 682.204 110.887C673.578 105.294 667.037 99.8904 661.729 93.6339C647.794 77.1397 630.446 63.7736 611.013 54.389C589.685 44.1512 566.934 33.5342 543.141 26.0454C540.486 25.1923 537.737 24.2443 535.083 23.3912C527.594 20.8317 519.916 18.2723 511.669 16.9452C501.526 15.3336 489.487 13.343 477.827 10.6887C464.177 7.65529 450.147 5.8542 436.118 5.38023C426.069 5.00105 416.021 5.66461 406.257 6.42297C400.949 6.80214 395.451 7.18132 390.047 7.37091C381.326 7.65529 372.795 8.12927 364.643 10.0252C351.277 13.1534 337.626 15.618 324.355 17.9879L320.847 18.6515C318.004 19.1254 314.97 19.5994 312.126 20.0734C305.112 21.0213 298.192 22.4432 291.366 24.1495C284.257 26.1402 277.337 28.6997 270.701 31.2591C266.435 32.8706 262.075 34.5769 257.714 35.9989C239.988 41.8761 221.503 50.3128 199.605 62.5413C174.39 76.5709 150.786 93.1599 128.983 112.024C119.978 119.797 111.541 129.656 103.104 141.979C98.0804 149.373 93.3407 157.051 88.6957 164.445C84.904 170.512 80.9226 176.863 76.9412 182.93C62.1533 204.923 49.6404 228.432 39.4026 252.983L37.2223 258.292C31.819 271.184 26.1314 284.455 21.4864 298.011C14.8508 317.254 11.9122 336.687 8.97356 358.205C7.74123 367.4 7.36205 376.69 7.07767 385.696C6.79328 392.237 6.60369 399.062 5.94013 405.697C4.51821 421.244 5.27657 438.117 8.2152 457.455C8.68917 460.299 9.06835 463.143 9.44753 465.987C10.8694 475.94 12.3862 486.368 15.0404 496.321C22.2448 523.243 31.9138 549.406 43.7631 574.621C57.5083 603.439 74.5714 630.455 89.3593 653.585C99.0283 668.657 109.74 683.161 121.305 696.906C131.638 708.945 144.056 719.183 157.896 727.051C163.773 730.463 169.745 734.066 175.433 737.573C181.784 741.46 188.325 745.441 194.866 749.233C200.269 752.361 205.767 755.679 210.981 758.902C225.105 767.623 239.798 776.534 256.198 782.411C261.601 784.307 267.099 786.677 272.407 788.857C282.361 793.123 292.788 797.483 303.784 799.758C308.24 800.706 312.79 801.37 317.15 802.033C319.805 802.412 322.364 802.886 324.924 803.266C329.474 803.929 334.024 804.403 338.574 804.688C342.935 804.877 347.2 805.351 351.561 805.92C363.221 807.911 375.07 808.29 386.635 808.574C393.365 808.764 400.285 809.048 407.016 809.522C411.471 809.901 416.021 810.091 420.666 810.091C434.696 809.996 448.63 808.574 462.376 806.015C467.779 805.067 473.372 804.403 478.775 803.834C487.307 802.886 496.217 801.844 504.749 799.569C510.152 798.147 515.555 796.346 520.769 794.545C524.466 793.312 528.353 792.08 532.144 790.942C550.535 785.539 568.356 778.335 585.419 769.424C595.846 763.831 606.179 757.669 616.038 751.697C627.602 744.777 639.452 737.668 651.586 731.411C657.368 728.473 663.909 724.776 669.312 719.088C683.721 704.111 700.594 686.1 716.709 666.762C729.033 651.974 741.925 635.953 751.594 617.468C754.343 612.35 756.807 606.946 759.177 601.827C762.495 594.339 766.192 587.039 770.363 579.835C784.108 556.8 800.318 505.706 800.318 505.516C803.446 495.657 805.532 484.851 806.764 471.39C807.143 466.935 807.712 462.385 808.186 458.024C809.324 448.734 810.461 439.16 810.272 429.586C810.272 412.997 809.513 397.545 808.091 382.662ZM662.487 439.823C662.108 442.667 661.823 445.701 661.539 448.639C661.065 455.844 659.643 462.953 657.558 469.873C657.368 470.632 647.225 502.483 638.599 516.891C635.85 521.631 633.385 526.466 631.205 531.49C629.688 534.808 628.076 538.22 626.37 541.443C620.303 553.008 612.151 563.151 604.378 572.536C594.045 584.954 583.239 596.424 573.949 606.093C570.915 609.032 567.408 611.402 563.616 613.203C555.653 617.279 547.88 621.924 540.392 626.474C534.04 630.266 527.405 634.247 520.769 637.849C510.057 643.442 498.777 647.992 487.117 651.405C484.652 652.163 482.093 653.016 479.628 653.775C476.31 654.912 472.898 656.05 469.485 656.903C464.177 658.135 458.773 659.083 453.275 659.557C449.673 659.936 446.071 660.315 442.374 660.979C429.103 663.349 418.012 664.013 407.679 663.159C403.224 662.78 398.674 662.685 394.313 662.496C387.014 662.306 379.525 662.022 372.226 660.789C369.287 660.315 366.349 660.031 363.41 659.936C360.566 659.842 357.817 659.557 355.068 659.083C353.362 658.799 351.656 658.514 349.949 658.23C347.2 657.756 344.262 657.377 341.513 656.808C334.782 655.386 328.336 652.732 322.08 649.983C318.572 648.561 314.97 646.95 311.368 645.717C301.225 642.115 291.935 636.427 282.93 630.929C279.517 628.844 275.915 626.664 272.407 624.578C268.237 622.208 263.971 619.649 259.989 617.089C256.292 614.814 252.406 612.444 248.519 610.264C239.988 605.43 232.404 599.173 225.958 591.779C218.564 583.058 211.834 573.863 205.672 564.289C196.098 549.406 185.197 532.059 176.475 513.763C168.892 497.743 162.73 481.059 158.18 463.901C156.569 457.645 155.431 451.199 154.673 444.848C154.388 442.952 154.104 441.151 153.82 439.255C151.924 427.121 151.45 416.504 152.398 406.835C152.777 402.474 152.966 398.019 153.156 393.659C153.346 387.971 153.63 382.094 154.388 376.311C156.189 362.566 158.085 350.243 162.256 338.204C165.195 329.672 168.797 321.046 172.304 312.799L173.726 309.386C180.267 293.745 188.23 278.768 197.52 264.738C200.174 260.757 202.734 256.68 205.198 252.699C208.137 247.959 211.265 243.03 214.393 238.385C218.943 231.56 224.252 225.303 230.414 219.9C244.254 207.861 259.326 197.339 275.346 188.428C289.281 180.655 301.035 175.347 312.221 171.555C315.065 170.607 318.004 169.47 320.753 168.427C325.018 166.815 329.284 165.204 333.74 163.971C338.005 162.929 342.366 162.076 346.632 161.412C348.527 161.128 350.423 160.843 352.319 160.464L354.594 160.085C363.221 158.568 372.131 156.957 380.852 154.966C385.971 153.923 391.185 153.354 396.399 153.354C400.001 153.26 403.508 152.975 407.016 152.691C411.945 152.312 417.064 151.933 422.183 151.933C423.415 151.933 424.647 151.933 425.88 152.027C434.696 152.312 443.417 153.449 451.948 155.345C459.627 157.146 467.495 158.379 474.13 159.516C479.06 160.464 483.894 161.791 488.539 163.497C490.245 164.066 492.046 164.635 493.847 165.204C509.015 169.943 523.518 176.769 537.169 183.31C549.207 189.092 559.919 197.339 568.546 207.577C572.622 212.222 577.456 216.298 582.765 219.521C589.021 223.597 594.614 228.716 601.25 236.679C608.264 245.021 613.952 254.5 619.545 263.6C622.673 268.814 625.991 274.217 629.498 279.431C633.195 284.929 635.565 291.754 637.84 298.295C638.599 300.665 639.452 303.035 640.4 305.405C644.002 314.79 647.225 324.174 650.827 334.696C655.662 348.821 658.79 360.575 660.686 371.761C661.349 376.027 661.729 380.198 661.823 384.463C662.013 386.928 662.108 389.488 662.392 392.047C663.245 401.526 663.814 411.385 664.004 422.097C663.814 427.974 663.34 433.946 662.487 439.823Z" fill="#97CDEB"/>
<path d="M420.856 814.831C416.116 814.831 411.471 814.641 406.826 814.262C400.191 813.788 393.271 813.503 386.635 813.314H386.54C374.975 812.935 362.936 812.555 350.992 810.565C347.011 809.901 342.745 809.617 338.669 809.333H338.479C333.74 809.143 329.095 808.669 324.355 807.911C321.89 807.531 319.521 807.152 317.056 806.773L316.392 806.678C312.032 806.015 307.482 805.256 303.026 804.403C291.461 802.033 280.939 797.578 270.701 793.217L270.322 793.028C265.203 790.848 259.99 788.667 254.776 786.771C237.997 780.799 223.115 771.699 208.706 762.883C203.492 759.66 198.089 756.342 192.685 753.309C186.05 749.517 179.509 745.536 173.158 741.649C167.755 738.331 161.688 734.634 155.716 731.127C141.402 722.975 128.604 712.453 117.893 699.94C106.138 686.1 95.3315 671.501 85.5677 656.145C70.5901 632.92 53.5271 605.714 39.5923 576.612C27.5534 551.207 17.8844 524.759 10.5852 497.553C7.74137 487.221 6.22466 476.793 4.80274 466.65C4.42357 463.807 4.04439 460.963 3.57041 458.119C0.53699 438.402 -0.221366 421.149 1.20055 405.224C1.76932 398.683 2.0537 392.047 2.24329 385.506C2.62247 376.406 2.90685 367.021 4.23398 357.542C7.17261 335.739 10.1112 316.022 16.9364 296.399C21.6762 282.749 27.3638 269.383 32.7671 256.396L34.9474 251.088C45.28 226.251 57.9825 202.458 72.7704 180.087C76.657 174.209 80.5436 168.048 84.2406 162.076L84.4301 161.696C89.0751 154.208 93.9096 146.529 98.9337 139.041C107.56 126.338 116.281 116.29 125.571 108.232C147.563 89.0838 171.546 72.3052 197.046 58.1808C219.228 45.8576 237.997 37.3261 256.008 31.2592C260.274 29.8373 264.54 28.2258 268.805 26.6143C275.631 24.0548 282.645 21.4006 289.945 19.4099C296.959 17.6088 304.069 16.1869 311.179 15.2389L311.747 15.1441C314.402 14.765 317.151 14.291 319.805 13.817L323.502 13.1535C336.678 10.7836 350.234 8.41373 363.41 5.28551C371.942 3.29483 380.758 2.82085 389.668 2.53647C394.882 2.34688 400.285 1.9677 405.404 1.58853H405.689C415.547 0.924964 425.785 0.166608 436.118 0.545786C450.432 1.01976 464.651 2.82085 478.586 6.04387C490.245 8.69811 502 10.6888 512.048 12.3003C520.58 13.6274 528.542 16.2817 536.126 18.9359H536.221C538.685 19.7891 541.435 20.737 544.184 21.5902C568.261 29.1737 591.296 39.8855 612.72 50.1233C632.816 59.7924 650.638 73.5376 665.047 90.6006C669.976 96.4778 676.138 101.597 684.385 106.905C695.096 113.825 704.481 122.357 715.667 135.628C727.042 149.184 736.142 164.161 744.864 178.665L745.148 179.139C749.888 187.007 754.817 195.159 760.031 202.837C766.666 212.601 770.458 223.787 774.25 234.688V234.783C775.482 238.29 776.714 241.893 777.947 245.21C783.445 259.714 788.564 274.407 794.157 290.807C801.835 313.273 806.859 332.137 809.893 349.958C810.935 356.878 811.504 363.893 811.788 370.813C811.978 374.415 812.262 378.397 812.547 382.188C813.969 397.261 814.727 412.712 815.012 429.586C815.201 439.634 813.969 449.777 812.831 458.688L812.736 459.162C812.262 463.333 811.694 467.693 811.315 471.959C810.082 485.799 807.997 496.985 804.679 507.222H804.584C802.973 513.479 794.82 535.756 794.725 535.945C786.952 556.99 780.032 572.631 774.155 582.489C770.174 589.409 766.572 596.519 763.349 603.818L763.254 604.008C760.979 608.937 758.419 614.53 755.575 619.838C745.717 638.608 732.635 654.912 720.122 669.89C703.912 689.323 686.944 707.334 672.535 722.406C666.658 728.568 659.643 732.549 653.576 735.677C641.538 741.839 629.688 748.948 618.313 755.774L618.123 755.868C608.17 761.84 597.932 768.002 587.505 773.595C570.252 782.695 552.146 789.994 533.377 795.492C529.68 796.63 525.983 797.862 522.286 799H522.096C516.788 800.801 511.29 802.602 505.792 804.024C496.786 806.394 487.781 807.437 479.06 808.385H479.249C474.036 808.953 468.632 809.617 463.419 810.47C449.389 813.314 435.17 814.736 420.856 814.831ZM339.238 799.948C343.693 800.137 348.148 800.611 352.604 801.275C363.884 803.171 375.544 803.55 386.825 803.929H386.919C393.65 804.119 400.665 804.403 407.585 804.877C411.85 805.256 416.306 805.351 420.856 805.351C434.601 805.256 448.252 803.929 461.807 801.37C467.21 800.422 472.803 799.758 478.207 799.189H478.491C486.833 798.242 495.554 797.294 503.801 795.113C509.11 793.691 514.418 791.985 519.537 790.184L519.727 790.089C523.424 788.857 527.215 787.625 531.007 786.487C549.113 781.179 566.65 774.069 583.334 765.348C593.571 759.85 603.715 753.783 613.573 747.906L613.763 747.811C625.328 740.891 637.272 733.687 649.595 727.43C654.998 724.681 661.16 721.174 666.089 716.055C680.403 701.077 697.277 683.256 713.297 664.013C725.431 649.319 738.133 633.583 747.613 615.573C750.362 610.359 752.826 604.956 755.101 600.121L755.196 599.931C758.514 592.348 762.306 584.954 766.382 577.75C778.99 556.705 793.872 510.73 795.673 505.137L795.863 504.379C798.896 494.899 800.887 484.377 802.025 471.201C802.404 466.84 802.973 462.385 803.447 458.119L803.541 457.645C804.679 448.545 805.722 439.255 805.627 429.775C805.342 413.186 804.584 397.924 803.162 383.136C802.783 379.25 802.593 375.079 802.309 371.477C802.025 364.841 801.456 358.205 800.413 351.57C797.569 334.222 792.64 315.927 785.056 293.935C779.464 277.63 774.345 263.032 768.941 248.623C767.614 245.116 766.287 241.419 765.15 237.911V237.816C761.642 227.579 757.945 216.962 752.068 208.241C746.759 200.373 741.83 192.125 736.996 184.163L736.711 183.689C728.18 169.47 719.269 154.871 708.368 141.79C697.845 129.277 689.124 121.219 679.266 114.868C670.165 109.085 663.34 103.303 657.747 96.6674C644.192 80.6471 627.413 67.6603 608.549 58.6548C587.41 48.5118 564.754 37.9896 541.245 30.5956C538.401 29.7425 535.652 28.7945 533.093 27.9414H533.282C526.078 25.4767 518.589 23.0121 510.816 21.685C500.578 20.0735 488.539 18.0828 476.69 15.3337C463.324 12.3003 449.673 10.594 435.928 10.12C426.07 9.74085 416.116 10.4044 406.542 11.1628H406.258C401.044 11.5419 395.546 11.9211 390.142 12.1107C381.611 12.3951 373.364 12.8691 365.685 14.6702C352.319 17.7984 338.574 20.263 325.208 22.6329L321.606 23.2965C318.857 23.7704 316.108 24.2444 313.359 24.6236L312.79 24.7184C305.965 25.6663 299.235 26.9935 292.504 28.6998C285.584 30.5956 278.854 33.1551 272.218 35.6198C267.858 37.2313 263.497 38.9376 259.042 40.4543C241.599 46.2367 223.399 54.5787 201.691 66.6176C176.76 80.4576 153.346 96.857 131.922 115.532C123.296 123.115 115.049 132.595 106.896 144.539C101.872 151.838 97.1326 159.421 92.5825 166.721L92.3929 167.1C88.6011 173.167 84.7145 179.328 80.7332 185.395C66.2296 207.293 53.9063 230.612 43.7633 254.879L41.583 260.188C36.1797 272.985 30.5869 286.256 25.9419 299.622C19.4959 318.487 16.5573 337.635 13.7134 358.964C12.4811 367.969 12.1967 377.164 11.8175 386.075C11.5332 392.711 11.3436 399.536 10.68 406.266C9.35288 421.433 10.0164 437.928 12.9551 456.887C13.429 459.73 13.8082 462.574 14.1874 465.513C15.6093 475.371 17.0312 485.609 19.6855 495.278C26.8899 521.916 36.3693 547.794 48.1238 572.725C61.7743 601.259 78.6477 628.18 93.4356 651.215C103.01 666.193 113.532 680.412 125.002 693.968C135.05 705.627 146.995 715.486 160.361 723.07C166.427 726.577 172.589 730.369 177.992 733.686C184.249 737.573 190.79 741.46 197.33 745.251C202.828 748.38 208.327 751.792 213.635 755.015C227.57 763.547 242.073 772.363 257.904 778.05C263.307 779.946 268.711 782.221 273.924 784.496L274.304 784.686C284.067 788.857 294.21 793.123 304.827 795.303C309.093 796.156 313.454 796.82 317.719 797.483L318.383 797.578C320.848 797.957 323.312 798.336 325.872 798.81C330.232 799.474 334.593 799.948 338.953 800.137L338.859 804.877L339.238 799.948ZM416.306 668.184C413.272 668.184 410.334 668.089 407.49 667.804C403.035 667.425 398.39 667.33 394.313 667.141C386.919 666.951 379.146 666.667 371.658 665.434C368.909 665.055 366.159 664.771 363.316 664.581H363.221C360.282 664.486 357.344 664.107 354.405 663.728C352.699 663.444 351.087 663.159 349.381 662.97C346.537 662.496 343.598 662.022 340.755 661.453C333.55 660.031 326.82 657.187 320.374 654.438C316.961 653.016 313.454 651.5 309.946 650.267C299.329 646.476 289.85 640.693 280.655 635.1C277.242 633.015 273.735 630.834 270.227 628.844C266.056 626.474 261.885 623.914 257.809 621.45L257.62 621.355C254.112 619.27 250.226 616.805 246.244 614.53C237.239 609.411 229.181 602.775 222.451 595.002C214.962 586.091 208.042 576.802 201.786 566.943C192.212 551.965 181.121 534.523 172.305 515.849C164.626 499.544 158.37 482.576 153.725 465.228C152.113 458.782 150.881 452.147 150.028 445.511V445.227C149.744 443.521 149.554 441.719 149.27 440.013C147.374 427.5 146.9 416.504 147.753 406.456C148.132 402.19 148.322 397.83 148.511 393.564C148.701 387.781 148.985 381.714 149.744 375.742C151.639 361.808 153.535 349.2 157.801 336.782C160.835 328.061 164.437 319.435 167.944 311.093L169.366 307.68C176.002 291.755 184.059 276.587 193.539 262.179C196.098 258.292 198.658 254.216 201.122 250.329L205.198 252.699L201.217 250.235C204.156 245.4 207.284 240.471 210.507 235.731C215.247 228.527 220.934 222.081 227.285 216.298C241.41 204.07 256.672 193.358 272.976 184.258C287.196 176.39 299.14 170.892 310.61 167.1C313.454 166.152 316.298 165.109 318.952 164.066H319.047C323.312 162.455 327.768 160.749 332.318 159.516C336.773 158.379 341.229 157.525 345.779 156.862C347.58 156.578 349.57 156.293 351.372 155.914L353.647 155.535C362.178 154.018 371.089 152.407 379.715 150.416C385.118 149.278 390.616 148.71 396.209 148.71C399.717 148.615 403.224 148.33 406.637 148.141C411.661 147.762 416.875 147.382 422.088 147.382C423.51 147.382 424.742 147.382 425.975 147.477C435.075 147.762 444.081 148.899 452.896 150.985C460.48 152.691 468.158 154.018 474.699 155.061C479.818 156.009 484.937 157.431 489.866 159.232L490.151 159.327C491.762 159.895 493.468 160.464 495.175 160.938C510.626 165.773 525.319 172.693 539.159 179.233C551.767 185.3 563.048 194.021 572.053 204.733C575.845 209.094 580.3 212.791 585.135 215.824C591.865 220.185 597.742 225.493 604.757 233.93C612.056 242.556 617.839 252.225 623.432 261.515C626.56 266.729 629.783 272.037 633.196 277.156C637.272 283.223 639.642 290.238 642.012 297.063L642.106 297.442C642.865 299.622 643.623 301.897 644.476 304.078C648.078 313.462 651.301 322.942 654.904 333.464C659.833 347.873 663.056 359.912 664.952 371.287C665.615 375.648 665.995 380.103 666.184 384.558C666.374 387.023 666.469 389.488 666.658 391.952C667.606 401.621 668.08 411.575 668.27 422.381C668.27 428.543 667.796 434.705 666.942 440.866L662.203 440.297L666.942 440.866C666.658 443.521 666.279 446.554 665.995 449.493C665.426 457.076 664.004 464.47 661.824 471.769V471.864C660.022 477.457 650.733 505.99 642.485 519.735C639.831 524.285 637.461 529.025 635.281 533.86C633.764 537.177 632.153 540.685 630.352 544.003C624.095 555.947 615.753 566.279 607.791 575.948C597.458 588.367 586.462 600.026 577.172 609.79C573.759 613.108 569.873 615.762 565.607 617.848C557.739 621.829 550.061 626.474 542.667 630.929L542.477 631.024C536.126 634.816 529.49 638.797 522.855 642.305C511.859 648.087 500.294 652.732 488.35 656.239C485.885 656.998 483.325 657.851 481.05 658.609C477.638 659.747 474.13 660.884 470.623 661.832C465.03 663.159 459.437 664.107 453.75 664.581C450.337 664.96 446.735 665.34 443.227 666.003C434.411 667.236 425.311 668.089 416.306 668.184ZM422.278 156.578C417.348 156.578 412.324 156.957 407.49 157.241C403.982 157.525 400.38 157.715 396.683 157.905C391.754 157.905 386.825 158.473 381.99 159.421C373.079 161.507 364.169 163.118 355.448 164.635L353.173 165.014C351.277 165.393 349.286 165.678 347.39 165.962C343.219 166.531 339.048 167.384 334.972 168.427C330.801 169.564 326.63 171.176 322.554 172.693H322.459C319.615 173.735 316.677 174.873 313.738 175.916C302.837 179.518 291.367 184.826 277.716 192.41C261.98 201.131 247.192 211.464 233.637 223.313C227.854 228.527 222.735 234.404 218.47 240.945C215.341 245.495 212.308 250.424 209.369 255.164L209.275 255.259C206.81 259.24 204.25 263.316 201.596 267.392C192.401 281.232 184.628 295.925 178.277 311.282L176.855 314.695C173.442 322.847 169.84 331.379 166.901 339.815C162.825 351.475 161.024 363.514 159.223 376.975C158.465 382.568 158.275 388.35 158.085 393.943C157.896 398.304 157.706 402.759 157.327 407.309C156.474 416.599 156.948 426.837 158.749 438.591C159.033 440.392 159.318 442.099 159.507 443.9V444.184C160.266 450.441 161.403 456.602 162.92 462.669C167.47 479.542 173.442 495.942 180.931 511.773C189.557 529.973 200.459 547.131 209.843 561.824C215.91 571.304 222.546 580.309 229.75 588.841C235.817 595.855 243.021 601.827 251.079 606.283C255.06 608.653 259.042 611.022 262.644 613.203L262.833 613.297C266.815 615.762 270.891 618.227 274.967 620.597C278.569 622.682 282.172 624.862 285.584 626.948C294.4 632.351 303.405 637.849 313.075 641.357C316.866 642.684 320.469 644.201 323.976 645.717C330.043 648.277 336.299 650.931 342.556 652.258C345.21 652.827 348.054 653.206 350.708 653.68C352.509 653.964 354.215 654.249 355.922 654.533C358.481 654.912 361.135 655.197 363.695 655.291H363.79C366.918 655.481 370.046 655.765 373.079 656.239C379.999 657.377 387.393 657.661 394.503 657.851C398.769 657.946 403.508 658.135 408.153 658.514C418.107 659.273 428.724 658.609 441.616 656.334C445.408 655.671 449.294 655.197 452.802 654.817C458.015 654.344 463.229 653.49 468.348 652.353C471.571 651.5 474.889 650.362 478.112 649.319C480.482 648.561 483.136 647.613 485.79 646.855C497.071 643.537 508.067 639.082 518.494 633.583C524.94 630.171 531.481 626.284 537.738 622.493L537.927 622.398C545.511 617.848 553.284 613.203 561.436 609.032C564.47 607.515 567.882 605.524 570.442 602.87C579.637 593.296 590.443 581.826 600.681 569.502C608.359 560.307 616.322 550.354 622.199 539.263C623.811 536.135 625.422 532.817 626.939 529.499C629.214 524.38 631.774 519.356 634.618 514.522C642.296 501.724 651.301 474.044 653.102 468.641L653.197 468.451C655.188 461.911 656.515 455.085 656.989 448.26C657.273 445.227 657.653 442.099 657.937 439.35C658.79 433.662 659.169 427.879 659.264 422.192C659.075 411.67 658.601 401.906 657.747 392.521C657.463 389.867 657.368 387.213 657.179 384.748C656.989 380.672 656.61 376.596 656.041 372.519C654.24 361.618 651.207 350.148 646.372 336.213C642.77 325.786 639.547 316.401 636.039 307.111C635.186 304.836 634.333 302.466 633.575 300.286L633.48 300.002C631.3 293.745 629.119 287.299 625.707 282.275C622.105 276.967 618.692 271.279 615.659 266.255C610.255 257.249 604.662 247.959 597.837 239.902C591.486 232.318 586.272 227.484 580.395 223.692C574.707 220.185 569.588 215.824 565.133 210.8C556.886 201.131 546.743 193.263 535.368 187.765C521.907 181.319 507.498 174.589 492.71 169.944C491.004 169.375 489.203 168.806 487.496 168.237L487.307 168.142C482.852 166.531 478.301 165.204 473.656 164.351C466.926 163.308 459.058 161.981 451.19 160.18C442.943 158.284 434.506 157.241 425.975 156.957C424.648 156.578 423.51 156.578 422.278 156.578Z" fill="#141414"/>
<path d="M90.2126 266.16C91.4449 263.316 92.8669 260.946 94.5732 259.145C96.2795 257.344 97.9858 256.112 99.7869 255.543C101.588 254.974 103.389 254.69 105.095 254.785C106.802 254.879 108.508 255.259 110.119 255.922C111.826 256.586 113.248 257.534 114.48 258.766C115.712 259.998 116.755 261.42 117.513 263.126C118.272 264.833 118.651 266.918 118.556 269.383C118.461 271.848 117.703 274.502 116.565 277.346L111.921 288.152L124.623 293.556C125.381 293.84 125.855 294.409 126.14 295.167C126.424 295.925 126.424 296.684 126.045 297.442C125.761 298.2 125.192 298.674 124.433 299.054C123.675 299.338 122.917 299.338 122.253 299.054L85.9469 283.602C85.1885 283.318 84.6197 282.749 84.3354 281.991C84.051 281.232 84.051 280.474 84.3354 279.716L90.2126 266.16ZM111.257 275.734C112.963 271.658 113.437 268.53 112.584 266.255C111.731 263.98 110.214 262.273 107.844 261.325C105.569 260.377 103.294 260.377 101.019 261.325C98.7441 262.273 96.7534 264.833 95.0471 268.814L90.6866 279.147L106.802 286.067L111.257 275.734Z" fill="#141414"/>
<path d="M90.2126 266.16C91.4449 263.316 92.8669 260.946 94.5732 259.145C96.2795 257.344 97.9858 256.112 99.7869 255.543C101.588 254.974 103.389 254.69 105.095 254.785C106.802 254.879 108.508 255.259 110.119 255.922C111.826 256.586 113.248 257.534 114.48 258.766C115.712 259.998 116.755 261.42 117.513 263.126C118.272 264.833 118.651 266.918 118.556 269.383C118.461 271.848 117.703 274.502 116.565 277.346L111.921 288.152L124.623 293.556C125.381 293.84 125.855 294.409 126.14 295.167C126.424 295.925 126.424 296.684 126.045 297.442C125.761 298.2 125.192 298.674 124.433 299.054C123.675 299.338 122.917 299.338 122.253 299.054L85.9469 283.602C85.1885 283.318 84.6197 282.749 84.3354 281.991C84.051 281.232 84.051 280.474 84.3354 279.716L90.2126 266.16ZM111.257 275.734C112.963 271.658 113.437 268.53 112.584 266.255C111.731 263.98 110.214 262.273 107.844 261.325C105.569 260.377 103.294 260.377 101.019 261.325C98.7441 262.273 96.7534 264.833 95.0471 268.814L90.6866 279.147L106.802 286.067L111.257 275.734Z" stroke="#141414" stroke-width="1.89589" stroke-miterlimit="10"/>
<path d="M160.929 221.227L163.394 222.839C164.058 223.313 164.532 223.881 164.626 224.64C164.816 225.398 164.626 226.156 164.152 226.82C163.678 227.578 163.015 228.052 162.257 228.147C161.498 228.337 160.74 228.147 160.076 227.673L158.465 226.63C157.517 225.967 156.664 225.493 155.905 225.019C155.147 224.64 154.104 224.166 152.777 223.692C151.45 223.218 150.218 223.028 149.175 223.123C148.132 223.218 146.9 223.597 145.668 224.355C144.34 225.114 143.203 226.251 142.16 227.768L134.861 238.954L147.469 247.201C148.132 247.675 148.606 248.243 148.701 249.097C148.891 249.855 148.701 250.613 148.227 251.277C147.753 251.94 147.184 252.414 146.426 252.509C145.668 252.699 144.909 252.509 144.246 252.035L111.068 230.327C110.404 229.853 109.93 229.285 109.74 228.431C109.551 227.673 109.74 226.915 110.12 226.251L118.367 213.643C121.59 208.714 125.002 205.681 128.605 204.543C132.207 203.406 135.714 203.88 138.937 206.06C141.117 207.482 142.729 209.378 143.677 211.748C144.72 214.117 144.814 216.772 144.056 219.521C145.383 218.383 146.805 217.625 148.511 217.34C150.218 217.056 151.829 217.151 153.441 217.625C155.052 218.099 156.474 218.573 157.612 219.142C158.844 219.995 159.981 220.563 160.929 221.227ZM136.567 226.251C138.558 223.123 139.601 220.279 139.601 217.625C139.601 214.971 138.463 212.98 136.188 211.463C134.008 210.041 131.828 209.757 129.647 210.515C127.467 211.368 125.097 213.643 122.632 217.435L116.376 227.009L130.121 236.015L136.567 226.251Z" fill="#141414"/>
<path d="M160.929 221.227L163.394 222.839C164.058 223.313 164.532 223.881 164.626 224.64C164.816 225.398 164.626 226.156 164.152 226.82C163.678 227.578 163.015 228.052 162.257 228.147C161.498 228.337 160.74 228.147 160.076 227.673L158.465 226.63C157.517 225.967 156.664 225.493 155.905 225.019C155.147 224.64 154.104 224.166 152.777 223.692C151.45 223.218 150.218 223.028 149.175 223.123C148.132 223.218 146.9 223.597 145.668 224.355C144.34 225.114 143.203 226.251 142.16 227.768L134.861 238.954L147.469 247.201C148.132 247.675 148.606 248.243 148.701 249.097C148.891 249.855 148.701 250.613 148.227 251.277C147.753 251.94 147.184 252.414 146.426 252.509C145.668 252.699 144.909 252.509 144.246 252.035L111.068 230.327C110.404 229.853 109.93 229.285 109.74 228.431C109.551 227.673 109.74 226.915 110.12 226.251L118.367 213.643C121.59 208.714 125.002 205.681 128.605 204.543C132.207 203.406 135.714 203.88 138.937 206.06C141.117 207.482 142.729 209.378 143.677 211.748C144.72 214.117 144.814 216.772 144.056 219.521C145.383 218.383 146.805 217.625 148.511 217.34C150.218 217.056 151.829 217.151 153.441 217.625C155.052 218.099 156.474 218.573 157.612 219.142C158.844 219.995 159.981 220.563 160.929 221.227ZM136.567 226.251C138.558 223.123 139.601 220.279 139.601 217.625C139.601 214.971 138.463 212.98 136.188 211.463C134.008 210.041 131.828 209.757 129.647 210.515C127.467 211.368 125.097 213.643 122.632 217.435L116.376 227.009L130.121 236.015L136.567 226.251Z" stroke="#141414" stroke-width="1.89589" stroke-miterlimit="10"/>
<path d="M192.686 185.016C193.255 184.447 193.823 184.163 194.582 184.163C195.34 184.163 196.004 184.352 196.572 184.921C197.141 185.49 197.425 186.058 197.425 186.817C197.425 187.575 197.141 188.239 196.667 188.807L179.13 207.766C178.561 208.335 177.898 208.714 177.139 208.714C176.381 208.714 175.623 208.525 175.054 207.956L146.331 181.319C145.762 180.75 145.383 180.086 145.383 179.233C145.383 178.475 145.573 177.717 146.142 177.148L163.679 158.189C164.247 157.62 164.816 157.336 165.575 157.336C166.333 157.336 166.996 157.525 167.565 158.094C168.134 158.663 168.418 159.232 168.418 159.99C168.418 160.748 168.134 161.412 167.66 161.981L152.209 178.664L162.636 188.333L176.665 173.261C177.234 172.692 177.803 172.408 178.561 172.408C179.32 172.408 179.983 172.598 180.552 173.166C181.121 173.735 181.405 174.304 181.405 175.062C181.405 175.821 181.121 176.484 180.647 177.053L166.617 192.125L177.139 201.889L192.686 185.016Z" fill="#141414"/>
<path d="M192.686 185.016C193.255 184.447 193.823 184.163 194.582 184.163C195.34 184.163 196.004 184.352 196.572 184.921C197.141 185.49 197.425 186.058 197.425 186.817C197.425 187.575 197.141 188.239 196.667 188.807L179.13 207.766C178.561 208.335 177.898 208.714 177.139 208.714C176.381 208.714 175.623 208.525 175.054 207.956L146.331 181.319C145.762 180.75 145.383 180.086 145.383 179.233C145.383 178.475 145.573 177.717 146.142 177.148L163.679 158.189C164.247 157.62 164.816 157.336 165.575 157.336C166.333 157.336 166.996 157.525 167.565 158.094C168.134 158.663 168.418 159.232 168.418 159.99C168.418 160.748 168.134 161.412 167.66 161.981L152.209 178.664L162.636 188.333L176.665 173.261C177.234 172.692 177.803 172.408 178.561 172.408C179.32 172.408 179.983 172.598 180.552 173.166C181.121 173.735 181.405 174.304 181.405 175.062C181.405 175.821 181.121 176.484 180.647 177.053L166.617 192.125L177.139 201.889L192.686 185.016Z" stroke="#141414" stroke-width="1.89589" stroke-miterlimit="10"/>
<path d="M232.784 148.331C233.353 147.857 234.016 147.667 234.775 147.762C235.438 147.857 236.007 148.236 236.386 148.805C237.05 149.658 237.144 150.606 236.67 151.554C234.585 156.578 231.457 160.559 227.475 163.687C222.262 167.669 216.669 169.375 210.792 168.617C204.914 167.858 199.795 164.73 195.435 159.137C191.169 153.544 189.368 147.857 190.221 141.885C191.074 135.913 194.013 130.983 199.227 127.002C203.208 123.874 207.948 121.978 213.351 121.219C214.394 121.03 215.247 121.409 215.91 122.167C216.384 122.641 216.574 123.305 216.479 123.968C216.384 124.632 216.1 125.296 215.436 125.77C215.057 126.054 214.773 126.244 214.394 126.244C210.128 127.002 206.431 128.613 203.208 131.078C198.847 134.396 196.478 138.282 196.098 142.738C195.719 147.193 197.046 151.459 200.269 155.535C203.398 159.611 207.189 162.076 211.55 162.834C215.91 163.593 220.271 162.265 224.632 158.948C227.855 156.483 230.319 153.26 232.12 149.373C232.12 148.899 232.405 148.615 232.784 148.331Z" fill="#141414"/>
<path d="M232.784 148.331C233.353 147.857 234.016 147.667 234.775 147.762C235.438 147.857 236.007 148.236 236.386 148.805C237.05 149.658 237.144 150.606 236.67 151.554C234.585 156.578 231.457 160.559 227.475 163.687C222.262 167.669 216.669 169.375 210.792 168.617C204.914 167.858 199.795 164.73 195.435 159.137C191.169 153.544 189.368 147.857 190.221 141.885C191.074 135.913 194.013 130.983 199.227 127.002C203.208 123.874 207.948 121.978 213.351 121.219C214.394 121.03 215.247 121.409 215.91 122.167C216.384 122.641 216.574 123.305 216.479 123.968C216.384 124.632 216.1 125.296 215.436 125.77C215.057 126.054 214.773 126.244 214.394 126.244C210.128 127.002 206.431 128.613 203.208 131.078C198.847 134.396 196.478 138.282 196.098 142.738C195.719 147.193 197.046 151.459 200.269 155.535C203.398 159.611 207.189 162.076 211.55 162.834C215.91 163.593 220.271 162.265 224.632 158.948C227.855 156.483 230.319 153.26 232.12 149.373C232.12 148.899 232.405 148.615 232.784 148.331Z" stroke="#141414" stroke-width="1.89589" stroke-miterlimit="10"/>
<path d="M233.163 105.673C233.352 104.914 233.826 104.251 234.49 103.872C235.153 103.492 235.912 103.398 236.765 103.587C237.523 103.777 238.187 104.251 238.566 105.009L258.473 139.609C258.852 140.367 258.947 141.031 258.757 141.884C258.568 142.643 258.094 143.211 257.335 143.685C256.672 144.064 255.913 144.159 255.155 143.97C254.397 143.78 253.828 143.306 253.354 142.548L233.447 107.948C233.068 107.189 232.878 106.431 233.163 105.673Z" fill="#141414"/>
<path d="M233.163 105.673C233.352 104.914 233.826 104.251 234.49 103.872C235.153 103.492 235.912 103.398 236.765 103.587C237.523 103.777 238.187 104.251 238.566 105.009L258.473 139.609C258.852 140.367 258.947 141.031 258.757 141.884C258.568 142.643 258.094 143.211 257.335 143.685C256.672 144.064 255.913 144.159 255.155 143.97C254.397 143.78 253.828 143.306 253.354 142.548L233.447 107.948C233.068 107.189 232.878 106.431 233.163 105.673Z" stroke="#141414" stroke-width="1.89589" stroke-miterlimit="10"/>
<path d="M266.531 93.9184C268.711 88.4204 272.977 84.439 279.328 81.8795C285.679 79.3201 291.462 79.3201 296.865 81.8795C302.268 84.3442 306.25 88.7996 308.904 95.056C311.274 101.502 311.368 107.379 309.188 112.877C307.008 118.375 302.742 122.357 296.391 124.916C290.04 127.476 284.257 127.476 278.854 124.916C273.451 122.452 269.469 117.996 266.815 111.74C264.35 105.389 264.256 99.4165 266.531 93.9184ZM294.4 119.892C299.235 117.996 302.363 114.963 303.974 110.697C305.586 106.526 305.396 101.976 303.5 97.2363C301.605 92.4965 298.666 89.0839 294.59 87.0932C290.514 85.1026 286.153 85.1026 281.319 86.9985C276.484 88.8943 273.261 92.0226 271.744 96.1935C270.228 100.364 270.417 104.915 272.218 109.654C274.114 114.394 277.053 117.807 281.034 119.797C285.11 121.788 289.566 121.788 294.4 119.892Z" fill="#141414"/>
<path d="M266.531 93.9184C268.711 88.4204 272.977 84.439 279.328 81.8795C285.679 79.3201 291.462 79.3201 296.865 81.8795C302.268 84.3442 306.25 88.7995 308.904 95.056C311.274 101.502 311.368 107.379 309.188 112.877C307.008 118.375 302.742 122.357 296.391 124.916C290.04 127.476 284.257 127.476 278.854 124.916C273.451 122.452 269.469 117.996 266.815 111.74C264.35 105.389 264.256 99.4165 266.531 93.9184ZM294.4 119.892C299.235 117.996 302.363 114.963 303.974 110.697C305.586 106.526 305.396 101.976 303.5 97.2363C301.605 92.4965 298.666 89.0839 294.59 87.0932C290.514 85.1026 286.153 85.1026 281.319 86.9985C276.484 88.8943 273.261 92.0226 271.744 96.1935C270.228 100.364 270.417 104.915 272.218 109.654C274.114 114.394 277.053 117.807 281.034 119.797C285.11 121.788 289.566 121.788 294.4 119.892Z" stroke="#141414" stroke-width="1.89589" stroke-miterlimit="10"/>
<path d="M356.965 61.9727C357.439 61.3091 358.007 60.93 358.86 60.7404C359.619 60.5508 360.377 60.7404 361.041 61.2143C361.704 61.6883 362.178 62.3519 362.273 63.1102L366.918 88.136C367.487 90.9798 367.392 93.6341 366.728 96.0987C366.065 98.5634 365.022 100.649 363.411 102.355C361.894 104.061 360.093 105.389 358.197 106.526C356.206 107.569 354.121 108.327 351.94 108.801C349.76 109.18 347.58 109.275 345.305 108.991C343.125 108.706 340.944 108.043 338.859 107C336.773 105.957 335.067 104.441 333.55 102.355C332.034 100.27 330.991 97.805 330.517 94.9612L325.872 69.9354C325.682 69.1771 325.872 68.4187 326.346 67.7552C326.82 67.0916 327.389 66.7124 328.242 66.5228C329 66.3333 329.759 66.5228 330.422 66.9968C331.086 67.4708 331.56 68.1343 331.654 68.8927L336.394 94.108C337.058 97.805 338.859 100.459 341.703 102.071C344.546 103.682 347.675 104.156 350.993 103.493C354.405 102.829 357.059 101.312 359.145 98.753C361.23 96.1935 361.894 93.0653 361.23 89.3683L356.491 64.153C356.396 63.3946 356.491 62.6363 356.965 61.9727Z" fill="#141414"/>
<path d="M356.965 61.9727C357.439 61.3091 358.007 60.93 358.86 60.7404C359.619 60.5508 360.377 60.7404 361.041 61.2143C361.704 61.6883 362.178 62.3519 362.273 63.1102L366.918 88.136C367.487 90.9798 367.392 93.6341 366.728 96.0987C366.065 98.5634 365.022 100.649 363.411 102.355C361.894 104.061 360.093 105.389 358.197 106.526C356.206 107.569 354.121 108.327 351.94 108.801C349.76 109.18 347.58 109.275 345.305 108.991C343.125 108.706 340.944 108.043 338.859 107C336.773 105.957 335.067 104.441 333.55 102.355C332.034 100.27 330.991 97.805 330.517 94.9612L325.872 69.9354C325.682 69.1771 325.872 68.4187 326.346 67.7552C326.82 67.0916 327.389 66.7124 328.242 66.5228C329 66.3333 329.759 66.5228 330.422 66.9968C331.086 67.4708 331.56 68.1343 331.654 68.8927L336.394 94.108C337.058 97.805 338.859 100.459 341.703 102.071C344.546 103.682 347.675 104.156 350.993 103.493C354.405 102.829 357.059 101.312 359.145 98.753C361.23 96.1935 361.894 93.0653 361.23 89.3683L356.491 64.153C356.396 63.3946 356.491 62.6363 356.965 61.9727Z" stroke="#141414" stroke-width="1.89589" stroke-miterlimit="10"/>
<path d="M392.891 70.3145C392.891 72.0208 393.65 73.4428 394.977 74.5803C396.304 75.7178 398.01 76.4762 400.096 76.8554C402.087 77.2345 404.362 77.8033 406.731 78.4669C409.101 79.1304 411.282 79.794 413.367 80.5523C415.358 81.3107 417.064 82.543 418.486 84.3441C419.908 86.1452 420.571 88.3255 420.666 90.9797C420.761 94.6767 419.244 97.7101 416.306 100.08C413.272 102.45 409.386 103.682 404.362 103.777C398.864 103.872 393.745 102.924 389.005 100.933C388.531 100.744 388.057 100.364 387.678 99.8904C387.299 99.4165 387.109 98.8477 387.109 98.2789C387.109 97.5206 387.299 96.9518 387.773 96.383C388.247 95.8143 388.91 95.5299 389.668 95.5299C390.142 95.5299 390.522 95.6247 390.901 95.7195C394.882 97.4258 399.148 98.1841 403.603 98.1841C411.092 98.0893 414.884 95.5299 414.789 90.6006C414.789 89.2734 414.22 88.2307 413.177 87.3775C412.135 86.5244 410.808 85.766 409.196 85.2921C407.585 84.8181 405.784 84.3441 403.888 83.8702C401.992 83.3962 400.001 82.9222 398.01 82.2586C396.02 81.5951 394.219 80.9315 392.607 80.0784C390.996 79.2252 389.668 77.9929 388.626 76.4762C387.583 74.9595 387.014 73.0636 387.014 70.8833C386.919 67.1863 388.341 63.9633 391.28 61.4039C394.219 58.8444 398.295 57.5173 403.508 57.4225C408.248 57.3277 412.514 57.9913 416.401 59.3184C417.633 59.6976 418.202 60.5507 418.202 61.8778C418.202 62.5414 418.012 63.205 417.538 63.7737C417.064 64.3425 416.495 64.6269 415.642 64.6269C415.358 64.6269 415.073 64.5321 414.599 64.3425C411.187 63.205 407.774 62.731 404.172 62.731C400.759 62.8258 398.01 63.4893 395.925 64.8165C393.839 66.2384 392.797 68.0395 392.891 70.3145Z" fill="#141414"/>
<path d="M392.891 70.3145C392.891 72.0208 393.65 73.4428 394.977 74.5803C396.304 75.7178 398.01 76.4762 400.096 76.8554C402.087 77.2345 404.362 77.8033 406.731 78.4669C409.101 79.1304 411.282 79.794 413.367 80.5523C415.358 81.3107 417.064 82.543 418.486 84.3441C419.908 86.1452 420.571 88.3255 420.666 90.9797C420.761 94.6767 419.244 97.7101 416.306 100.08C413.272 102.45 409.386 103.682 404.362 103.777C398.864 103.872 393.745 102.924 389.005 100.933C388.531 100.744 388.057 100.364 387.678 99.8904C387.299 99.4165 387.109 98.8477 387.109 98.2789C387.109 97.5206 387.299 96.9518 387.773 96.383C388.247 95.8143 388.91 95.5299 389.668 95.5299C390.142 95.5299 390.522 95.6247 390.901 95.7195C394.882 97.4258 399.148 98.1841 403.603 98.1841C411.092 98.0893 414.884 95.5299 414.789 90.6006C414.789 89.2734 414.22 88.2307 413.177 87.3775C412.135 86.5244 410.808 85.766 409.196 85.2921C407.585 84.8181 405.784 84.3441 403.888 83.8702C401.992 83.3962 400.001 82.9222 398.01 82.2586C396.02 81.5951 394.219 80.9315 392.607 80.0784C390.996 79.2252 389.668 77.9929 388.626 76.4762C387.583 74.9595 387.014 73.0636 387.014 70.8833C386.919 67.1863 388.341 63.9633 391.28 61.4039C394.219 58.8444 398.295 57.5173 403.508 57.4225C408.248 57.3277 412.514 57.9913 416.401 59.3184C417.633 59.6976 418.202 60.5507 418.202 61.8778C418.202 62.5414 418.012 63.205 417.538 63.7737C417.064 64.3425 416.495 64.6269 415.642 64.6269C415.358 64.6269 415.073 64.5321 414.599 64.3425C411.187 63.205 407.774 62.731 404.172 62.731C400.759 62.8258 398.01 63.4893 395.925 64.8165C393.839 66.2384 392.797 68.0395 392.891 70.3145Z" stroke="#141414" stroke-width="1.89589" stroke-miterlimit="10"/>
<path d="M490.436 68.0396C493.469 68.7979 495.934 69.8406 498.019 71.1678C500.105 72.4949 501.527 74.0116 502.474 75.7179C503.422 77.4242 503.896 79.0357 504.181 80.8368C504.465 82.6379 504.276 84.2494 503.896 86.0505C503.517 87.8516 502.759 89.3683 501.811 90.7902C500.863 92.2122 499.631 93.4445 498.019 94.582C496.408 95.7196 494.417 96.3831 491.952 96.6675C489.488 96.9519 486.739 96.7623 483.8 96.0039L472.425 93.2549L469.202 106.716C469.012 107.474 468.538 108.138 467.874 108.517C467.211 108.896 466.453 108.991 465.599 108.801C464.841 108.612 464.177 108.138 463.798 107.474C463.419 106.811 463.23 106.052 463.419 105.294L472.614 66.8072C472.804 66.0489 473.278 65.3853 473.941 65.0061C474.605 64.5322 475.363 64.4374 476.122 64.6269L490.436 68.0396ZM484.558 90.3163C488.824 91.359 492.047 91.2642 494.133 90.0319C496.218 88.7995 497.64 86.9985 498.209 84.5338C498.777 82.0691 498.398 79.8889 497.071 77.8034C495.744 75.7179 492.9 74.2012 488.634 73.2533L477.828 70.6938L473.752 87.7568L484.558 90.3163Z" fill="#141414"/>
<path d="M490.436 68.0396C493.469 68.7979 495.934 69.8406 498.019 71.1678C500.105 72.4949 501.527 74.0116 502.474 75.7179C503.422 77.4242 503.896 79.0357 504.181 80.8368C504.465 82.6379 504.276 84.2494 503.896 86.0505C503.517 87.8516 502.759 89.3683 501.811 90.7902C500.863 92.2122 499.631 93.4445 498.019 94.582C496.408 95.7196 494.417 96.3831 491.952 96.6675C489.488 96.9519 486.739 96.7623 483.8 96.0039L472.425 93.2549L469.202 106.716C469.012 107.474 468.538 108.138 467.874 108.517C467.211 108.896 466.453 108.991 465.599 108.801C464.841 108.612 464.177 108.138 463.798 107.474C463.419 106.811 463.23 106.052 463.419 105.294L472.614 66.8072C472.804 66.0489 473.278 65.3853 473.941 65.0061C474.605 64.5322 475.363 64.4374 476.122 64.6269L490.436 68.0396ZM484.558 90.3163C488.824 91.359 492.047 91.2642 494.133 90.0319C496.218 88.7995 497.64 86.9985 498.209 84.5338C498.777 82.0691 498.398 79.8889 497.071 77.8034C495.744 75.7179 492.9 74.2012 488.634 73.2533L477.828 70.6938L473.752 87.7568L484.558 90.3163Z" stroke="#141414" stroke-width="1.89589" stroke-miterlimit="10"/>
<path d="M539.349 126.433C540.107 126.717 540.676 127.286 540.96 128.044C541.245 128.803 541.245 129.561 540.96 130.319C540.676 131.078 540.107 131.552 539.349 131.931C538.591 132.215 537.832 132.215 537.074 131.931L515.935 123.115C514.892 122.641 514.134 121.977 513.755 120.935C513.281 119.892 513.375 118.849 513.755 117.807L528.542 82.3534C528.827 81.595 529.396 81.0262 530.154 80.7419C530.912 80.4575 531.671 80.4575 532.429 80.7419C533.187 81.0262 533.756 81.595 534.04 82.3534C534.325 83.1117 534.325 83.8701 534.04 84.6284L520.011 118.28L539.349 126.433Z" fill="#141414"/>
<path d="M539.349 126.433C540.107 126.717 540.676 127.286 540.96 128.044C541.245 128.803 541.245 129.561 540.96 130.319C540.676 131.078 540.107 131.552 539.349 131.931C538.591 132.215 537.832 132.215 537.074 131.931L515.935 123.115C514.892 122.641 514.134 121.977 513.755 120.935C513.281 119.892 513.375 118.849 513.755 117.807L528.542 82.3534C528.827 81.595 529.396 81.0262 530.154 80.7419C530.912 80.4575 531.671 80.4575 532.429 80.7419C533.187 81.0262 533.756 81.595 534.04 82.3534C534.325 83.1117 534.325 83.8701 534.04 84.6284L520.011 118.28L539.349 126.433Z" stroke="#141414" stroke-width="1.89589" stroke-miterlimit="10"/>
<path d="M585.419 155.535C585.324 156.104 585.229 156.483 585.04 156.767C584.566 157.431 583.997 157.905 583.238 158.094C582.48 158.284 581.722 158.189 581.058 157.715C579.921 157.052 579.447 156.009 579.636 154.682L581.437 143.875L562.763 132.215L553.852 138.567C552.809 139.325 551.672 139.325 550.534 138.661C549.776 138.187 549.397 137.619 549.207 136.86C549.018 136.102 549.207 135.344 549.586 134.68C549.776 134.396 550.06 134.111 550.534 133.732L585.04 109.465C586.651 108.422 588.168 108.327 589.59 109.18L590.158 109.56C591.58 110.507 592.244 111.835 591.96 113.825L585.419 155.535ZM567.503 128.992L582.29 138.187L585.987 115.721L567.503 128.992Z" fill="#141414"/>
<path d="M585.419 155.535C585.324 156.104 585.229 156.483 585.04 156.767C584.566 157.431 583.997 157.905 583.238 158.094C582.48 158.284 581.722 158.189 581.058 157.715C579.921 157.052 579.447 156.009 579.636 154.682L581.437 143.875L562.763 132.215L553.852 138.567C552.809 139.325 551.672 139.325 550.534 138.661C549.776 138.187 549.397 137.619 549.207 136.86C549.018 136.102 549.207 135.344 549.586 134.68C549.776 134.396 550.06 134.111 550.534 133.732L585.04 109.465C586.651 108.422 588.168 108.327 589.59 109.18L590.158 109.56C591.58 110.507 592.244 111.835 591.96 113.825L585.419 155.535ZM567.503 128.992L582.29 138.187L585.987 115.721L567.503 128.992Z" stroke="#141414" stroke-width="1.89589" stroke-miterlimit="10"/>
<path d="M622.768 148.52C621.631 149.752 621.157 151.269 621.441 153.07C621.725 154.777 622.389 156.483 623.621 158.189C624.854 159.895 626.086 161.791 627.413 163.782C628.74 165.868 629.878 167.858 630.826 169.754C631.774 171.65 632.248 173.735 632.058 176.011C631.868 178.286 630.92 180.371 629.119 182.362C626.655 185.111 623.527 186.343 619.735 186.059C615.943 185.774 612.151 183.973 608.454 180.655C604.378 177.053 601.25 172.788 599.07 168.143C598.785 167.669 598.785 167.1 598.785 166.531C598.88 165.962 599.07 165.394 599.449 165.014C599.923 164.446 600.586 164.161 601.25 164.066C602.008 163.972 602.672 164.256 603.241 164.73C603.525 165.014 603.809 165.394 603.999 165.773C605.8 169.754 608.359 173.167 611.677 176.2C617.27 181.224 621.725 181.888 625.043 178.191C625.896 177.243 626.276 176.105 626.086 174.778C625.896 173.451 625.422 172.029 624.569 170.607C623.716 169.185 622.768 167.574 621.631 165.962C620.493 164.351 619.45 162.645 618.408 160.843C617.365 159.042 616.607 157.336 615.943 155.535C615.374 153.829 615.185 152.028 615.469 150.132C615.753 148.331 616.607 146.529 618.028 145.013C620.493 142.264 623.716 140.842 627.603 140.937C631.489 141.031 635.376 142.832 639.262 146.34C642.77 149.468 645.519 152.881 647.415 156.483C647.984 157.62 647.889 158.663 647.036 159.611C646.562 160.085 645.993 160.464 645.234 160.559C644.476 160.654 643.813 160.464 643.244 159.895C643.054 159.706 642.865 159.422 642.675 159.042C640.969 155.914 638.788 153.165 636.134 150.795C633.575 148.52 631.11 147.193 628.645 146.719C626.276 146.15 624.285 146.814 622.768 148.52Z" fill="#141414"/>
<path d="M622.768 148.52C621.631 149.752 621.157 151.269 621.441 153.07C621.725 154.777 622.389 156.483 623.621 158.189C624.854 159.895 626.086 161.791 627.413 163.782C628.74 165.868 629.878 167.858 630.826 169.754C631.774 171.65 632.248 173.735 632.058 176.011C631.868 178.286 630.92 180.371 629.119 182.362C626.655 185.111 623.527 186.343 619.735 186.059C615.943 185.774 612.151 183.973 608.454 180.655C604.378 177.053 601.25 172.788 599.07 168.143C598.785 167.669 598.785 167.1 598.785 166.531C598.88 165.962 599.07 165.394 599.449 165.014C599.923 164.446 600.586 164.161 601.25 164.066C602.008 163.972 602.672 164.256 603.241 164.73C603.525 165.014 603.809 165.394 603.999 165.773C605.8 169.754 608.359 173.167 611.677 176.2C617.27 181.224 621.725 181.888 625.043 178.191C625.896 177.243 626.276 176.105 626.086 174.778C625.896 173.451 625.422 172.029 624.569 170.607C623.716 169.185 622.768 167.574 621.631 165.962C620.493 164.351 619.45 162.645 618.408 160.843C617.365 159.042 616.607 157.336 615.943 155.535C615.374 153.829 615.185 152.028 615.469 150.132C615.753 148.331 616.607 146.529 618.028 145.013C620.493 142.264 623.716 140.842 627.603 140.937C631.489 141.031 635.376 142.832 639.262 146.34C642.77 149.468 645.519 152.881 647.415 156.483C647.984 157.62 647.889 158.663 647.036 159.611C646.562 160.085 645.993 160.464 645.234 160.559C644.476 160.654 643.813 160.464 643.244 159.895C643.054 159.706 642.865 159.422 642.675 159.042C640.969 155.914 638.788 153.165 636.134 150.795C633.575 148.52 631.11 147.193 628.645 146.719C626.276 146.15 624.285 146.814 622.768 148.52Z" stroke="#141414" stroke-width="1.89589" stroke-miterlimit="10"/>
<path d="M684.574 196.012C685.048 196.581 685.238 197.244 685.238 198.003C685.238 198.761 684.859 199.425 684.195 199.899C683.532 200.373 682.963 200.562 682.205 200.468C681.446 200.373 680.877 200.088 680.309 199.425L671.967 189.377L643.528 212.886C642.865 213.36 642.201 213.644 641.348 213.549C640.495 213.454 639.926 213.075 639.358 212.506C638.884 211.843 638.599 211.179 638.694 210.421C638.789 209.663 639.168 208.999 639.737 208.43L668.175 184.921L659.833 174.778C659.359 174.209 659.17 173.546 659.17 172.788C659.264 172.029 659.549 171.46 660.212 170.986C660.781 170.512 661.445 170.228 662.203 170.323C662.961 170.418 663.53 170.702 664.099 171.271L684.574 196.012Z" fill="#141414"/>
<path d="M684.574 196.012C685.048 196.581 685.238 197.244 685.238 198.003C685.238 198.761 684.859 199.425 684.195 199.899C683.532 200.373 682.963 200.562 682.205 200.468C681.446 200.373 680.877 200.088 680.309 199.425L671.967 189.377L643.528 212.886C642.865 213.36 642.201 213.644 641.348 213.549C640.495 213.454 639.926 213.075 639.358 212.506C638.884 211.843 638.599 211.179 638.694 210.421C638.789 209.663 639.168 208.999 639.737 208.43L668.175 184.921L659.833 174.778C659.359 174.209 659.17 173.546 659.17 172.788C659.264 172.029 659.549 171.46 660.212 170.986C660.781 170.512 661.445 170.228 662.203 170.323C662.961 170.418 663.53 170.702 664.099 171.271L684.574 196.012Z" stroke="#141414" stroke-width="1.89589" stroke-miterlimit="10"/>
<path d="M697.845 216.677C698.603 216.867 699.267 217.246 699.646 217.909C700.025 218.573 700.215 219.331 700.025 220.185C699.835 220.943 699.456 221.606 698.698 222.08L665.141 243.504C664.477 243.978 663.719 244.073 662.96 243.883C662.202 243.694 661.538 243.22 661.159 242.556C660.685 241.892 660.59 241.134 660.78 240.376C660.97 239.617 661.349 238.954 662.107 238.575L695.664 217.151C696.328 216.677 697.086 216.488 697.845 216.677Z" fill="#141414"/>
<path d="M697.845 216.677C698.603 216.867 699.267 217.246 699.646 217.909C700.025 218.573 700.215 219.331 700.025 220.185C699.835 220.943 699.456 221.606 698.698 222.08L665.141 243.504C664.477 243.978 663.719 244.073 662.96 243.883C662.202 243.694 661.538 243.22 661.159 242.556C660.685 241.892 660.59 241.134 660.78 240.376C660.97 239.617 661.349 238.954 662.107 238.575L695.664 217.151C696.328 216.677 697.086 216.488 697.845 216.677Z" stroke="#141414" stroke-width="1.89589" stroke-miterlimit="10"/>
<path d="M695.381 289.385C695.665 290.048 695.76 290.806 695.476 291.47C695.191 292.134 694.812 292.608 694.149 292.892C693.201 293.271 692.253 293.176 691.4 292.608C686.944 289.479 683.721 285.593 681.541 280.948C678.792 274.976 678.413 269.193 680.404 263.6C682.394 258.008 686.66 253.742 693.011 250.708C699.362 247.77 705.429 247.296 710.927 249.381C716.52 251.467 720.691 255.448 723.44 261.42C725.62 265.97 726.474 270.994 726 276.398C725.905 277.44 725.431 278.199 724.483 278.673C723.914 278.957 723.251 279.052 722.587 278.862C721.924 278.673 721.45 278.199 721.07 277.44C720.881 277.061 720.786 276.682 720.786 276.303C720.976 271.942 720.217 267.961 718.606 264.359C716.331 259.335 713.013 256.206 708.747 254.879C704.481 253.552 700.026 253.931 695.381 256.112C690.736 258.292 687.513 261.42 685.807 265.496C684.101 269.573 684.385 274.123 686.755 279.147C688.461 282.844 691.021 285.972 694.433 288.531C695.002 288.721 695.191 289.005 695.381 289.385Z" fill="#141414"/>
<path d="M695.381 289.385C695.665 290.048 695.76 290.806 695.476 291.47C695.191 292.134 694.812 292.608 694.149 292.892C693.201 293.271 692.253 293.176 691.4 292.608C686.944 289.479 683.721 285.593 681.541 280.948C678.792 274.976 678.413 269.193 680.404 263.6C682.394 258.008 686.66 253.742 693.011 250.708C699.362 247.77 705.429 247.296 710.927 249.381C716.52 251.467 720.691 255.448 723.44 261.42C725.62 265.97 726.474 270.994 726 276.398C725.905 277.44 725.431 278.199 724.483 278.673C723.914 278.957 723.251 279.052 722.587 278.862C721.924 278.673 721.45 278.199 721.07 277.44C720.881 277.061 720.786 276.682 720.786 276.303C720.976 271.942 720.217 267.961 718.606 264.359C716.331 259.335 713.013 256.206 708.747 254.879C704.481 253.552 700.026 253.931 695.381 256.112C690.736 258.292 687.513 261.42 685.807 265.496C684.101 269.573 684.385 274.123 686.755 279.147C688.461 282.844 691.021 285.972 694.433 288.531C695.002 288.721 695.191 289.005 695.381 289.385Z" stroke="#141414" stroke-width="1.89589" stroke-miterlimit="10"/>
<path d="M177.317 604.048C178.481 605.444 179.453 606.807 180.232 608.138C181.012 609.469 181.659 610.773 182.173 612.05C182.72 613.3 183.118 614.537 183.367 615.76C183.676 616.988 183.911 618.195 184.074 619.38C184.128 619.775 184.069 620.264 183.896 620.849C183.782 621.439 183.45 621.964 182.898 622.424C182.249 622.965 181.475 623.225 180.576 623.204C179.711 623.155 178.953 622.741 178.303 621.962C177.897 621.475 177.643 620.972 177.54 620.453C177.161 618.348 176.606 616.362 175.875 614.495C175.144 612.628 174.007 610.77 172.464 608.919C171.003 607.166 169.36 605.757 167.536 604.691C165.712 603.626 163.775 602.985 161.724 602.769C159.732 602.558 157.671 602.791 155.539 603.468C153.407 604.145 151.318 605.336 149.273 607.041C147.488 608.53 146.046 610.199 144.948 612.05C143.877 613.934 143.203 615.898 142.928 617.944C142.712 619.995 142.942 622.086 143.619 624.218C144.296 626.35 145.473 628.423 147.151 630.435C148.478 632.026 149.874 633.338 151.341 634.371C152.867 635.41 154.353 636.235 155.798 636.846L163.832 630.148L157.54 622.6C156.944 621.886 156.671 621.096 156.719 620.23C156.827 619.369 157.239 618.642 157.953 618.046C158.667 617.451 159.441 617.191 160.274 617.266C161.167 617.347 161.911 617.745 162.507 618.459L170.504 628.052C171.181 628.863 171.46 629.759 171.341 630.738C171.281 631.723 170.846 632.554 170.034 633.231L158.981 642.446C158.202 643.096 157.341 643.483 156.4 643.607C155.491 643.705 154.603 643.565 153.737 643.186C151.545 642.207 149.405 640.993 147.316 639.543C145.254 638.125 143.316 636.329 141.503 634.154C139.311 631.525 137.746 628.757 136.809 625.851C135.932 622.951 135.623 620.072 135.882 617.215C136.201 614.363 137.096 611.608 138.567 608.951C140.071 606.267 142.137 603.828 144.767 601.636C147.494 599.363 150.34 597.76 153.305 596.829C156.27 595.897 159.182 595.561 162.039 595.82C164.929 596.052 167.675 596.872 170.278 598.278C172.941 599.69 175.287 601.613 177.317 604.048Z" fill="black"/>
<path d="M167.872 656.277L204.48 636.839C205.222 636.461 206.042 636.256 206.94 636.223C207.897 636.184 208.802 636.511 209.655 637.203L210.148 637.603C211.001 638.296 211.49 639.101 211.615 640.019C211.8 640.932 211.784 641.79 211.567 642.593L200.06 682.412C199.966 682.662 199.871 682.912 199.777 683.162C199.683 683.413 199.556 683.636 199.396 683.833C198.783 684.588 198.018 685.028 197.099 685.153C196.214 685.305 195.344 685.035 194.491 684.342C193.933 683.889 193.545 683.328 193.325 682.66C193.079 682.025 193.067 681.335 193.291 680.591L196.184 670.691L180.14 657.663L171.045 662.528C170.362 662.899 169.685 663.029 169.012 662.919C168.313 662.841 167.685 662.576 167.127 662.123C166.274 661.43 165.814 660.622 165.748 659.697C165.715 658.799 166.005 657.973 166.618 657.218C166.778 657.021 166.97 656.851 167.196 656.708C167.421 656.564 167.647 656.42 167.872 656.277ZM198.184 663.903L203.827 644.884L186.372 654.312L198.184 663.903Z" fill="black"/>
<path d="M210.556 692.11L228.728 658.91C229.378 657.724 230.333 656.946 231.596 656.577C232.858 656.207 234.063 656.337 235.213 656.966L235.936 657.362C236.64 657.748 237.187 658.288 237.578 658.984C237.988 659.642 238.264 660.371 238.404 661.171L242.681 701.816L258.144 673.565C258.611 672.713 259.303 672.152 260.221 671.884C261.159 671.578 262.055 671.659 262.907 672.125C263.76 672.592 264.31 673.303 264.559 674.258C264.864 675.196 264.784 676.091 264.317 676.944L246.145 710.144C245.516 711.294 244.57 712.053 243.308 712.422C242.046 712.791 240.822 712.651 239.635 712.002L238.968 711.637C238.263 711.251 237.706 710.729 237.295 710.071C236.902 709.47 236.643 708.798 236.519 708.056L232.223 667.183L216.729 695.489C216.262 696.342 215.551 696.892 214.596 697.14C213.679 697.409 212.793 697.31 211.941 696.843C211.088 696.376 210.527 695.684 210.259 694.766C209.99 693.848 210.089 692.963 210.556 692.11Z" fill="black"/>
<path d="M268.302 715.276C268.821 715.456 269.246 715.715 269.576 716.053C270.633 717.134 272.057 718.253 273.848 719.409C275.64 720.566 277.793 721.58 280.31 722.45C281.708 722.934 283.04 723.283 284.308 723.498C285.589 723.673 286.752 723.673 287.796 723.498C288.881 723.336 289.801 722.939 290.556 722.306C291.352 721.687 291.957 720.778 292.372 719.58C292.662 718.741 292.631 717.925 292.279 717.133C291.967 716.354 291.428 715.586 290.662 714.829C289.909 714.032 288.988 713.266 287.901 712.532C286.867 711.772 285.746 711.004 284.539 710.228C282.907 709.127 281.25 707.972 279.566 706.763C277.922 705.568 276.5 704.249 275.3 702.805C274.154 701.335 273.343 699.735 272.869 698.006C272.447 696.25 272.617 694.274 273.377 692.077C273.985 690.32 274.898 688.779 276.116 687.457C277.374 686.148 278.883 685.149 280.641 684.461C282.4 683.772 284.396 683.434 286.628 683.446C288.873 683.418 291.314 683.86 293.95 684.772C296.347 685.602 298.482 686.541 300.354 687.592C302.267 688.656 303.951 689.798 305.408 691.018C305.858 691.397 306.207 691.875 306.454 692.453C306.755 693.004 306.747 693.739 306.429 694.658C306.166 695.417 305.638 696.039 304.844 696.525C304.104 696.984 303.274 697.055 302.355 696.737C302.156 696.668 301.963 696.579 301.777 696.47C301.605 696.321 301.453 696.179 301.321 696.044C300.196 695.028 298.877 694.124 297.362 693.332C295.847 692.54 294.191 691.832 292.394 691.21C290.956 690.713 289.569 690.39 288.234 690.241C286.953 690.066 285.757 690.099 284.644 690.34C283.586 690.556 282.666 690.953 281.884 691.532C281.102 692.111 280.532 692.92 280.172 693.959C279.813 694.997 279.789 695.973 280.099 696.885C280.423 697.757 280.962 698.592 281.715 699.389C282.507 700.2 283.461 701 284.574 701.788C285.702 702.536 286.89 703.304 288.137 704.094C289.796 705.115 291.428 706.216 293.032 707.397C294.649 708.539 296.018 709.817 297.138 711.233C298.298 712.663 299.062 714.269 299.429 716.051C299.837 717.847 299.639 719.903 298.838 722.22C298.216 724.017 297.263 725.543 295.979 726.799C294.709 728.014 293.188 728.919 291.417 729.514C289.686 730.122 287.718 730.38 285.514 730.288C283.335 730.25 281.048 729.817 278.651 728.987C275.576 727.923 272.944 726.677 270.754 725.249C268.551 723.86 266.689 722.456 265.169 721.035C264.678 720.642 264.33 720.097 264.125 719.399C263.919 718.702 263.933 718.014 264.168 717.335C264.444 716.536 264.973 715.914 265.753 715.468C266.533 715.022 267.383 714.959 268.302 715.276Z" fill="black"/>
<path d="M316.679 696.975C316.872 696.022 317.367 695.281 318.164 694.753C318.969 694.182 319.848 693.994 320.801 694.186L345.719 699.226C346.671 699.419 347.396 699.888 347.891 700.635C348.387 701.383 348.539 702.232 348.346 703.185C348.153 704.138 347.683 704.862 346.936 705.358C346.197 705.812 345.352 705.943 344.399 705.75L322.961 701.415L320.435 713.905L339.636 717.788C340.589 717.981 341.313 718.451 341.809 719.198C342.304 719.945 342.456 720.795 342.263 721.747C342.071 722.7 341.601 723.424 340.854 723.92C340.115 724.374 339.269 724.505 338.316 724.313L319.115 720.429L316.577 732.981L338.015 737.317C338.968 737.51 339.692 737.98 340.188 738.727C340.683 739.474 340.835 740.324 340.642 741.277C340.449 742.229 339.98 742.954 339.232 743.449C338.494 743.904 337.648 744.034 336.695 743.842L311.777 738.802C310.825 738.61 310.084 738.115 309.555 737.318C309.026 736.521 308.858 735.646 309.051 734.693L316.679 696.975Z" fill="black"/>
<path d="M390.226 704.184L414.887 704.136C415.86 704.134 416.663 704.449 417.298 705.082C417.934 705.715 418.252 706.517 418.254 707.489C418.256 708.461 417.941 709.265 417.308 709.9C416.675 710.493 415.873 710.79 414.901 710.792L393.789 710.834L393.814 723.577L412.707 723.539C413.679 723.538 414.482 723.853 415.118 724.486C415.753 725.118 416.071 725.921 416.073 726.893C416.075 727.865 415.76 728.669 415.127 729.304C414.494 729.897 413.692 730.194 412.72 730.196L393.827 730.233L393.859 746.526C393.861 747.498 393.504 748.323 392.786 749.001C392.112 749.679 391.288 750.018 390.316 750.02C389.344 750.022 388.519 749.686 387.842 749.011C387.164 748.336 386.824 747.512 386.822 746.54L386.746 707.741C386.744 706.769 387.081 705.944 387.756 705.267C388.43 704.547 389.254 704.186 390.226 704.184Z" fill="black"/>
<path d="M429.563 744.97L440.485 704.987C440.719 704.188 441.131 703.45 441.722 702.773C442.349 702.049 443.208 701.613 444.297 701.466L444.925 701.382C446.014 701.235 446.936 701.43 447.691 701.968C448.482 702.459 449.096 703.058 449.532 703.767L470.653 739.43C470.771 739.67 470.888 739.91 471.006 740.15C471.124 740.39 471.2 740.636 471.233 740.887C471.363 741.85 471.159 742.709 470.621 743.464C470.125 744.214 469.333 744.662 468.244 744.808C467.532 744.904 466.857 744.803 466.22 744.506C465.588 744.25 465.078 743.785 464.689 743.113L459.46 734.222L438.978 736.984L436.29 746.941C436.093 747.693 435.724 748.276 435.182 748.69C434.647 749.146 434.023 749.422 433.311 749.518C432.222 749.665 431.318 749.446 430.599 748.86C429.923 748.269 429.519 747.492 429.389 746.528C429.356 746.277 429.364 746.02 429.413 745.758C429.463 745.495 429.513 745.232 429.563 744.97ZM455.886 728.115L445.898 710.974L440.807 730.148L455.886 728.115Z" fill="black"/>
<path d="M493.515 691.448C496.565 690.584 499.318 690.222 501.773 690.361C504.258 690.448 506.605 690.749 508.816 691.265C509.385 691.412 509.869 691.648 510.269 691.974C510.669 692.3 510.992 692.823 511.24 693.544L511.275 693.666C511.494 694.439 511.405 695.21 511.008 695.982C510.641 696.701 509.99 697.193 509.054 697.458C508.851 697.515 508.622 697.558 508.366 697.587C508.111 697.615 507.844 697.603 507.565 697.55C505.749 697.186 503.932 696.976 502.115 696.919C500.298 696.863 498.231 697.163 495.913 697.819C493.31 698.556 491.148 699.608 489.426 700.974C487.705 702.34 486.38 703.945 485.453 705.789C484.555 707.581 484.037 709.551 483.898 711.699C483.789 713.794 484.057 715.981 484.702 718.258C485.335 720.494 486.253 722.497 487.457 724.264C488.701 726.02 490.181 727.446 491.897 728.542C493.642 729.585 495.606 730.237 497.788 730.497C499.97 730.758 502.363 730.519 504.965 729.782C507.283 729.126 509.201 728.297 510.719 727.296C512.236 726.295 513.673 725.164 515.028 723.901C515.238 723.71 515.459 723.559 515.691 723.45C515.924 723.34 516.142 723.256 516.345 723.199C517.28 722.934 518.098 723.031 518.8 723.492C519.53 723.9 520.005 724.49 520.224 725.263L520.259 725.385C520.425 726.128 520.424 726.744 520.254 727.231C520.085 727.718 519.796 728.173 519.389 728.596C517.777 730.195 515.936 731.683 513.866 733.059C511.849 734.466 509.315 735.601 506.265 736.464C503.134 737.351 500.082 737.666 497.11 737.41C494.127 737.113 491.389 736.285 488.895 734.926C486.391 733.527 484.177 731.606 482.255 729.164C480.363 726.669 478.921 723.673 477.931 720.175C476.94 716.678 476.602 713.392 476.917 710.315C477.261 707.187 478.138 704.391 479.549 701.927C480.948 699.422 482.846 697.281 485.242 695.504C487.626 693.687 490.384 692.335 493.515 691.448Z" fill="black"/>
<path d="M520.158 687.968C519.758 687.082 519.697 686.228 519.975 685.407C520.291 684.568 520.893 683.949 521.778 683.548L550.547 670.543C551.433 670.143 552.295 670.101 553.134 670.417C553.973 670.734 554.593 671.335 554.993 672.221C555.394 673.107 555.436 673.969 555.119 674.808C554.785 675.608 554.175 676.209 553.289 676.609L542.14 681.649L556.842 714.173C557.243 715.059 557.255 715.958 556.879 716.87C556.541 717.765 555.929 718.412 555.043 718.813C554.158 719.213 553.267 719.244 552.373 718.907C551.478 718.569 550.83 717.957 550.43 717.072L535.728 684.548L524.52 689.614C523.635 690.014 522.781 690.075 521.96 689.797C521.159 689.463 520.559 688.854 520.158 687.968Z" fill="black"/>
<path d="M575.322 655.679C578.215 653.771 581.152 652.543 584.132 651.995C587.089 651.412 589.966 651.438 592.765 652.073C595.563 652.709 598.212 653.923 600.712 655.718C603.188 657.477 605.387 659.773 607.307 662.608C609.156 665.489 610.413 668.432 611.078 671.436C611.72 674.405 611.782 677.301 611.263 680.123C610.745 682.946 609.648 685.619 607.97 688.143C606.27 690.631 603.973 692.829 601.08 694.737C598.187 696.645 595.244 697.902 592.252 698.509C589.272 699.057 586.382 699.013 583.584 698.378C580.821 697.719 578.201 696.51 575.725 694.751C573.26 692.934 571.05 690.619 569.095 687.808C567.281 684.903 566.035 681.978 565.358 679.033C564.694 676.029 564.603 673.127 565.085 670.328C565.604 667.505 566.713 664.85 568.413 662.361C570.126 659.814 572.429 657.587 575.322 655.679ZM574.97 683.934C576.25 685.874 577.742 687.523 579.446 688.879C581.163 690.177 583.005 691.089 584.972 691.615C586.915 692.105 588.943 692.186 591.054 691.856C593.178 691.468 595.298 690.576 597.415 689.18C599.532 687.784 601.17 686.198 602.327 684.422C603.497 682.587 604.239 680.68 604.554 678.701C604.845 676.686 604.715 674.646 604.162 672.58C603.622 670.455 602.712 668.423 601.432 666.482C600.129 664.506 598.619 662.87 596.902 661.572C595.221 660.25 593.409 659.344 591.465 658.854C589.498 658.329 587.453 658.26 585.329 658.648C583.218 658.977 581.103 659.84 578.987 661.236C576.87 662.632 575.226 664.247 574.057 666.082C572.899 667.858 572.174 669.753 571.883 671.768C571.568 673.748 571.67 675.782 572.187 677.871C572.739 679.937 573.667 681.958 574.97 683.934Z" fill="black"/>
<path d="M607.151 633.882L617.736 623.579C619.977 621.397 622.151 619.783 624.257 618.735C626.334 617.657 628.315 617.056 630.199 616.932C632.085 616.749 633.845 617.012 635.479 617.721C637.144 618.401 638.639 619.422 639.966 620.785C641.587 622.451 642.696 624.439 643.293 626.748C643.889 629.058 643.722 631.461 642.792 633.959C644.323 633.472 645.863 633.388 647.413 633.708C648.933 633.997 650.361 634.495 651.697 635.2C653.063 635.876 654.278 636.64 655.342 637.491C656.377 638.312 657.19 639.025 657.779 639.631L659.813 641.721C660.491 642.417 660.824 643.244 660.811 644.2C660.798 645.156 660.443 645.974 659.747 646.652C658.959 647.418 658.117 647.795 657.221 647.783C656.324 647.771 655.508 647.386 654.771 646.629L653.444 645.266C652.737 644.54 651.851 643.721 650.787 642.81C649.724 641.899 648.538 641.195 647.229 640.699C645.921 640.203 644.518 640.065 643.02 640.284C641.523 640.503 639.972 641.393 638.367 642.956L629.417 651.667L639.234 661.753C639.912 662.449 640.229 663.29 640.186 664.276C640.173 665.232 639.819 666.049 639.122 666.727C638.425 667.405 637.599 667.738 636.643 667.725C635.686 667.712 634.869 667.358 634.191 666.661L607.129 638.858C606.451 638.162 606.118 637.335 606.131 636.379C606.114 635.392 606.454 634.56 607.151 633.882ZM632.498 639.29C634.921 636.932 636.417 634.591 636.986 632.267C637.557 629.884 636.972 627.799 635.233 626.012C634.466 625.224 633.637 624.645 632.746 624.275C631.884 623.874 630.914 623.757 629.836 623.921C628.758 624.086 627.571 624.563 626.275 625.353C624.979 626.142 623.529 627.318 621.924 628.881L614.382 636.221L624.73 646.852L632.498 639.29Z" fill="black"/>
<path d="M640.017 606.216L639.914 606.143C639.121 605.581 638.648 604.858 638.498 603.975C638.337 603.032 638.537 602.164 639.099 601.371C639.832 600.336 640.884 599.838 642.255 599.877L664.727 600.178L656.986 579.08C656.494 577.799 656.615 576.642 657.348 575.607C657.91 574.814 658.65 574.354 659.568 574.228C660.476 574.042 661.327 574.23 662.12 574.792L662.224 574.866C662.913 575.354 663.36 575.93 663.564 576.592L672.019 601.071L685.056 610.305C685.849 610.867 686.326 611.619 686.487 612.562C686.648 613.505 686.448 614.372 685.886 615.166C685.324 615.959 684.559 616.453 683.592 616.649C682.65 616.81 681.782 616.609 680.988 616.047L667.951 606.813C663.623 606.855 659.322 606.968 655.048 607.152C650.74 607.311 646.421 607.23 642.091 606.908C641.26 606.838 640.569 606.607 640.017 606.216Z" fill="black"/>
</g>
<defs>
<clipPath id="clip0">
<rect width="814.759" height="814.38" fill="white" transform="translate(0.537109 0.450928)"/>
</clipPath>
</defs>
</svg>
